<?xml version="1.0" encoding="UTF-8"?> <svg xmlns="http://www.w3.org/2000/svg" width="339" height="369" viewBox="0 0 339 369" fill="none"> <g clip-path="url(#clip0)"> <rect width="339" height="368" transform="translate(0 0.0979156)" fill="white"></rect> <path d="M224 66.0979C224 63.3365 226.239 61.0979 229 61.0979H334C336.761 61.0979 339 63.3365 339 66.0979V331.098C339 333.859 336.761 336.098 334 336.098H229C226.239 336.098 224 333.859 224 331.098V66.0979Z" fill="white"></path> <path fill-rule="evenodd" clip-rule="evenodd" d="M334 62.5979H229C227.067 62.5979 225.5 64.1649 225.5 66.0979V331.098C225.5 333.031 227.067 334.598 229 334.598H334C335.933 334.598 337.5 333.031 337.5 331.098V66.0979C337.5 64.1649 335.933 62.5979 334 62.5979ZM229 61.0979C226.239 61.0979 224 63.3365 224 66.0979V331.098C224 333.859 226.239 336.098 229 336.098H334C336.761 336.098 339 333.859 339 331.098V66.0979C339 63.3365 336.761 61.0979 334 61.0979H229Z" fill="black"></path> <path fill-rule="evenodd" clip-rule="evenodd" d="M246.571 158.598C246.495 158.598 246.336 158.641 246.094 158.923C245.764 159.308 245.352 159.598 244.857 159.598C244.362 159.598 243.95 159.308 243.62 158.923L244.38 158.273C244.621 158.555 244.781 158.598 244.857 158.598C244.933 158.598 245.093 158.555 245.335 158.273C245.664 157.888 246.076 157.598 246.571 157.598C247.067 157.598 247.479 157.888 247.808 158.273C248.05 158.555 248.21 158.598 248.286 158.598C248.362 158.598 248.521 158.555 248.763 158.273C249.093 157.888 249.505 157.598 250 157.598C250.495 157.598 250.907 157.888 251.237 158.273C251.479 158.555 251.638 158.598 251.714 158.598C251.79 158.598 251.95 158.555 252.192 158.273C252.521 157.888 252.933 157.598 253.429 157.598C253.924 157.598 254.336 157.888 254.665 158.273C254.907 158.555 255.067 158.598 255.143 158.598C255.219 158.598 255.379 158.555 255.62 158.273C255.95 157.888 256.362 157.598 256.857 157.598C257.352 157.598 257.764 157.888 258.094 158.273C258.336 158.555 258.495 158.598 258.571 158.598C258.648 158.598 258.807 158.555 259.049 158.273C259.379 157.888 259.79 157.598 260.286 157.598C260.781 157.598 261.193 157.888 261.522 158.273C261.764 158.555 261.924 158.598 262 158.598C262.076 158.598 262.236 158.555 262.478 158.273C262.807 157.888 263.219 157.598 263.714 157.598C264.21 157.598 264.621 157.888 264.951 158.273C265.193 158.555 265.352 158.598 265.429 158.598C265.505 158.598 265.664 158.555 265.906 158.273C266.236 157.888 266.648 157.598 267.143 157.598C267.638 157.598 268.05 157.888 268.38 158.273L267.62 158.923C267.379 158.641 267.219 158.598 267.143 158.598C267.067 158.598 266.907 158.641 266.665 158.923C266.336 159.308 265.924 159.598 265.429 159.598C264.933 159.598 264.521 159.308 264.192 158.923C263.95 158.641 263.79 158.598 263.714 158.598C263.638 158.598 263.479 158.641 263.237 158.923C262.907 159.308 262.495 159.598 262 159.598C261.505 159.598 261.093 159.308 260.763 158.923C260.521 158.641 260.362 158.598 260.286 158.598C260.21 158.598 260.05 158.641 259.808 158.923C259.479 159.308 259.067 159.598 258.571 159.598C258.076 159.598 257.664 159.308 257.335 158.923C257.093 158.641 256.933 158.598 256.857 158.598C256.781 158.598 256.621 158.641 256.38 158.923C256.05 159.308 255.638 159.598 255.143 159.598C254.648 159.598 254.236 159.308 253.906 158.923C253.664 158.641 253.505 158.598 253.429 158.598C253.352 158.598 253.193 158.641 252.951 158.923C252.621 159.308 252.21 159.598 251.714 159.598C251.219 159.598 250.807 159.308 250.478 158.923C250.236 158.641 250.076 158.598 250 158.598C249.924 158.598 249.764 158.641 249.522 158.923C249.193 159.308 248.781 159.598 248.286 159.598C247.79 159.598 247.379 159.308 247.049 158.923C246.807 158.641 246.648 158.598 246.571 158.598Z" fill="black"></path> <path fill-rule="evenodd" clip-rule="evenodd" d="M309.721 145.098H294V144.098H309.721V145.098Z" fill="black"></path> <path fill-rule="evenodd" clip-rule="evenodd" d="M323 150.098H294V149.098H323V150.098Z" fill="black"></path> <path fill-rule="evenodd" clip-rule="evenodd" d="M323 155.098H294V154.098H323V155.098Z" fill="black"></path> <path fill-rule="evenodd" clip-rule="evenodd" d="M323 160.098H294V159.098H323V160.098Z" fill="black"></path> <path fill-rule="evenodd" clip-rule="evenodd" d="M242 88.0979L304 88.0979V89.0979L242 89.0979V88.0979Z" fill="black"></path> <path fill-rule="evenodd" clip-rule="evenodd" d="M227 105.098L319 105.098V106.098L227 106.098V105.098Z" fill="black"></path> <path fill-rule="evenodd" clip-rule="evenodd" d="M227 185.098H319V186.098H227V185.098Z" fill="black"></path> <path fill-rule="evenodd" clip-rule="evenodd" d="M227 194.098H319V195.098H227V194.098Z" fill="black"></path> <path fill-rule="evenodd" clip-rule="evenodd" d="M242 93.0979L304 93.0979V94.0979L242 94.0979V93.0979Z" fill="black"></path> <path fill-rule="evenodd" clip-rule="evenodd" d="M254 115.098H294V116.098H254V115.098Z" fill="black"></path> <path fill-rule="evenodd" clip-rule="evenodd" d="M254 203.098H294V204.098H254V203.098Z" fill="black"></path> <path fill-rule="evenodd" clip-rule="evenodd" d="M227 110.098H319V111.098H227V110.098Z" fill="black"></path> <path fill-rule="evenodd" clip-rule="evenodd" d="M227 190.098H319V191.098H227V190.098Z" fill="black"></path> <path fill-rule="evenodd" clip-rule="evenodd" d="M227 199.098H319V200.098H227V199.098Z" fill="black"></path> <path fill-rule="evenodd" clip-rule="evenodd" d="M224 75.0979L339 75.0979L339 76.5979L224 76.5979L224 75.0979Z" fill="black"></path> <path fill-rule="evenodd" clip-rule="evenodd" d="M224 127.098L339 127.098L339 128.098L224 128.098L224 127.098Z" fill="black"></path> <path fill-rule="evenodd" clip-rule="evenodd" d="M224 173.098L339 173.098L339 174.098L224 174.098L224 173.098Z" fill="black"></path> <path fill-rule="evenodd" clip-rule="evenodd" d="M224 216.098L339 216.098L339 217.098L224 217.098L224 216.098Z" fill="black"></path> <path fill-rule="evenodd" clip-rule="evenodd" d="M224 275.098L339 275.098L339 276.098L224 276.098L224 275.098Z" fill="black"></path> <path fill-rule="evenodd" clip-rule="evenodd" d="M224 318.098L339 318.098L339 319.098L224 319.098L224 318.098Z" fill="black"></path> <path fill-rule="evenodd" clip-rule="evenodd" d="M319 288.098H285V287.098H319V288.098Z" fill="black"></path> <path fill-rule="evenodd" clip-rule="evenodd" d="M319 298.098H285V297.098H319V298.098Z" fill="black"></path> <path fill-rule="evenodd" clip-rule="evenodd" d="M319 293.098H285V292.098H319V293.098Z" fill="black"></path> <path fill-rule="evenodd" clip-rule="evenodd" d="M319 303.098H285V302.098H319V303.098Z" fill="black"></path> <path fill-rule="evenodd" clip-rule="evenodd" d="M319 308.098H285V307.098H319V308.098Z" fill="black"></path> <path fill-rule="evenodd" clip-rule="evenodd" d="M319 327.098H285V326.098H319V327.098Z" fill="black"></path> <path fill-rule="evenodd" clip-rule="evenodd" d="M278 288.098H244V287.098H278V288.098Z" fill="black"></path> <path fill-rule="evenodd" clip-rule="evenodd" d="M278 298.098H244V297.098H278V298.098Z" fill="black"></path> <path fill-rule="evenodd" clip-rule="evenodd" d="M278 293.098H244V292.098H278V293.098Z" fill="black"></path> <path fill-rule="evenodd" clip-rule="evenodd" d="M278 303.098H244V302.098H278V303.098Z" fill="black"></path> <path fill-rule="evenodd" clip-rule="evenodd" d="M278 308.098H244V307.098H278V308.098Z" fill="black"></path> <path fill-rule="evenodd" clip-rule="evenodd" d="M264.5 145.098C265.881 145.098 267 143.979 267 142.598C267 141.217 265.881 140.098 264.5 140.098C263.119 140.098 262 141.217 262 142.598C262 143.979 263.119 145.098 264.5 145.098ZM264.5 146.098C266.433 146.098 268 144.531 268 142.598C268 140.665 266.433 139.098 264.5 139.098C262.567 139.098 261 140.665 261 142.598C261 144.531 262.567 146.098 264.5 146.098Z" fill="black"></path> <path fill-rule="evenodd" clip-rule="evenodd" d="M318 229.098H243V263.098H318V229.098ZM242 228.098V264.098H319V228.098H242Z" fill="black"></path> <path fill-rule="evenodd" clip-rule="evenodd" d="M281.5 253.098C285.09 253.098 288 250.188 288 246.598C288 243.008 285.09 240.098 281.5 240.098C277.91 240.098 275 243.008 275 246.598C275 250.188 277.91 253.098 281.5 253.098ZM281.5 254.098C285.642 254.098 289 250.74 289 246.598C289 242.456 285.642 239.098 281.5 239.098C277.358 239.098 274 242.456 274 246.598C274 250.74 277.358 254.098 281.5 254.098Z" fill="black"></path> <path fill-rule="evenodd" clip-rule="evenodd" d="M280.5 243.03L284.781 246.598L280.5 250.165V243.03ZM281.5 245.165V248.03L283.219 246.598L281.5 245.165Z" fill="black"></path> <path d="M0 66.0979C0 63.3365 2.23858 61.0979 5 61.0979H110C112.761 61.0979 115 63.3365 115 66.0979V331.098C115 333.859 112.761 336.098 110 336.098H5C2.23858 336.098 0 333.859 0 331.098V66.0979Z" fill="white"></path> <path fill-rule="evenodd" clip-rule="evenodd" d="M110 62.5979H5C3.067 62.5979 1.5 64.1649 1.5 66.0979V331.098C1.5 333.031 3.067 334.598 5 334.598H110C111.933 334.598 113.5 333.031 113.5 331.098V66.0979C113.5 64.1649 111.933 62.5979 110 62.5979ZM5 61.0979C2.23858 61.0979 0 63.3365 0 66.0979V331.098C0 333.859 2.23858 336.098 5 336.098H110C112.761 336.098 115 333.859 115 331.098V66.0979C115 63.3365 112.761 61.0979 110 61.0979H5Z" fill="black"></path> <path fill-rule="evenodd" clip-rule="evenodd" d="M32.5714 113.598C32.4952 113.598 32.3358 113.641 32.0939 113.923C31.7643 114.308 31.3524 114.598 30.8571 114.598C30.3619 114.598 29.9499 114.308 29.6204 113.923L30.3796 113.273C30.6215 113.555 30.7809 113.598 30.8571 113.598C30.9333 113.598 31.0928 113.555 31.3346 113.273C31.6642 112.888 32.0762 112.598 32.5714 112.598C33.0667 112.598 33.4786 112.888 33.8082 113.273C34.05 113.555 34.2095 113.598 34.2857 113.598C34.3619 113.598 34.5214 113.555 34.7632 113.273C35.0928 112.888 35.5048 112.598 36 112.598C36.4952 112.598 36.9072 112.888 37.2368 113.273C37.4786 113.555 37.6381 113.598 37.7143 113.598C37.7905 113.598 37.9499 113.555 38.1918 113.273C38.5214 112.888 38.9333 112.598 39.4286 112.598C39.9238 112.598 40.3358 112.888 40.6653 113.273C40.9072 113.555 41.0667 113.598 41.1428 113.598C41.219 113.598 41.3785 113.555 41.6204 113.273C41.9499 112.888 42.3619 112.598 42.8571 112.598C43.3524 112.598 43.7643 112.888 44.0939 113.273C44.3358 113.555 44.4952 113.598 44.5714 113.598C44.6476 113.598 44.8071 113.555 45.0489 113.273C45.3785 112.888 45.7905 112.598 46.2857 112.598C46.7809 112.598 47.1929 112.888 47.5225 113.273C47.7643 113.555 47.9238 113.598 48 113.598C48.0762 113.598 48.2357 113.555 48.4775 113.273C48.8071 112.888 49.219 112.598 49.7143 112.598C50.2095 112.598 50.6215 112.888 50.951 113.273C51.1929 113.555 51.3524 113.598 51.4286 113.598C51.5048 113.598 51.6642 113.555 51.9061 113.273C52.2357 112.888 52.6476 112.598 53.1428 112.598C53.6381 112.598 54.05 112.888 54.3796 113.273L53.6204 113.923C53.3785 113.641 53.219 113.598 53.1428 113.598C53.0667 113.598 52.9072 113.641 52.6653 113.923C52.3358 114.308 51.9238 114.598 51.4286 114.598C50.9333 114.598 50.5214 114.308 50.1918 113.923C49.9499 113.641 49.7905 113.598 49.7143 113.598C49.6381 113.598 49.4786 113.641 49.2368 113.923C48.9072 114.308 48.4952 114.598 48 114.598C47.5048 114.598 47.0928 114.308 46.7632 113.923C46.5214 113.641 46.3619 113.598 46.2857 113.598C46.2095 113.598 46.05 113.641 45.8082 113.923C45.4786 114.308 45.0667 114.598 44.5714 114.598C44.0762 114.598 43.6642 114.308 43.3346 113.923C43.0928 113.641 42.9333 113.598 42.8571 113.598C42.7809 113.598 42.6215 113.641 42.3796 113.923C42.05 114.308 41.6381 114.598 41.1428 114.598C40.6476 114.598 40.2357 114.308 39.9061 113.923C39.6642 113.641 39.5048 113.598 39.4286 113.598C39.3524 113.598 39.1929 113.641 38.951 113.923C38.6215 114.308 38.2095 114.598 37.7143 114.598C37.219 114.598 36.8071 114.308 36.4775 113.923C36.2357 113.641 36.0762 113.598 36 113.598C35.9238 113.598 35.7643 113.641 35.5225 113.923C35.1929 114.308 34.7809 114.598 34.2857 114.598C33.7905 114.598 33.3785 114.308 33.0489 113.923C32.8071 113.641 32.6476 113.598 32.5714 113.598Z" fill="black"></path> <path fill-rule="evenodd" clip-rule="evenodd" d="M70.5714 108.598C70.4952 108.598 70.3358 108.641 70.0939 108.923C69.7643 109.308 69.3524 109.598 68.8571 109.598C68.3619 109.598 67.9499 109.308 67.6204 108.923L68.3796 108.273C68.6215 108.555 68.7809 108.598 68.8571 108.598C68.9333 108.598 69.0928 108.555 69.3346 108.273C69.6642 107.888 70.0762 107.598 70.5714 107.598C71.0667 107.598 71.4786 107.888 71.8082 108.273C72.05 108.555 72.2095 108.598 72.2857 108.598C72.3619 108.598 72.5214 108.555 72.7632 108.273C73.0928 107.888 73.5048 107.598 74 107.598C74.4952 107.598 74.9072 107.888 75.2368 108.273C75.4786 108.555 75.6381 108.598 75.7143 108.598C75.7905 108.598 75.9499 108.555 76.1918 108.273C76.5214 107.888 76.9333 107.598 77.4286 107.598C77.9238 107.598 78.3358 107.888 78.6653 108.273C78.9072 108.555 79.0667 108.598 79.1428 108.598C79.219 108.598 79.3785 108.555 79.6204 108.273C79.9499 107.888 80.3619 107.598 80.8571 107.598C81.3524 107.598 81.7643 107.888 82.0939 108.273C82.3358 108.555 82.4952 108.598 82.5714 108.598C82.6476 108.598 82.8071 108.555 83.0489 108.273C83.3785 107.888 83.7905 107.598 84.2857 107.598C84.7809 107.598 85.1929 107.888 85.5225 108.273C85.7643 108.555 85.9238 108.598 86 108.598C86.0762 108.598 86.2357 108.555 86.4775 108.273C86.8071 107.888 87.219 107.598 87.7143 107.598C88.2095 107.598 88.6215 107.888 88.951 108.273C89.1929 108.555 89.3524 108.598 89.4286 108.598C89.5048 108.598 89.6642 108.555 89.9061 108.273C90.2357 107.888 90.6476 107.598 91.1428 107.598C91.6381 107.598 92.05 107.888 92.3796 108.273L91.6204 108.923C91.3785 108.641 91.219 108.598 91.1428 108.598C91.0667 108.598 90.9072 108.641 90.6653 108.923C90.3358 109.308 89.9238 109.598 89.4286 109.598C88.9333 109.598 88.5214 109.308 88.1918 108.923C87.9499 108.641 87.7905 108.598 87.7143 108.598C87.6381 108.598 87.4786 108.641 87.2368 108.923C86.9072 109.308 86.4952 109.598 86 109.598C85.5048 109.598 85.0928 109.308 84.7632 108.923C84.5214 108.641 84.3619 108.598 84.2857 108.598C84.2095 108.598 84.05 108.641 83.8082 108.923C83.4786 109.308 83.0667 109.598 82.5714 109.598C82.0762 109.598 81.6642 109.308 81.3346 108.923C81.0928 108.641 80.9333 108.598 80.8571 108.598C80.7809 108.598 80.6215 108.641 80.3796 108.923C80.05 109.308 79.6381 109.598 79.1428 109.598C78.6476 109.598 78.2357 109.308 77.9061 108.923C77.6642 108.641 77.5048 108.598 77.4286 108.598C77.3524 108.598 77.1929 108.641 76.951 108.923C76.6215 109.308 76.2095 109.598 75.7143 109.598C75.219 109.598 74.8071 109.308 74.4775 108.923C74.2357 108.641 74.0762 108.598 74 108.598C73.9238 108.598 73.7643 108.641 73.5225 108.923C73.1929 109.308 72.7809 109.598 72.2857 109.598C71.7905 109.598 71.3785 109.308 71.0489 108.923C70.8071 108.641 70.6476 108.598 70.5714 108.598Z" fill="black"></path> <path fill-rule="evenodd" clip-rule="evenodd" d="M46.5714 108.598C46.4952 108.598 46.3358 108.641 46.0939 108.923C45.7643 109.308 45.3524 109.598 44.8571 109.598C44.3619 109.598 43.9499 109.308 43.6204 108.923L44.3796 108.273C44.6215 108.555 44.7809 108.598 44.8571 108.598C44.9333 108.598 45.0928 108.555 45.3346 108.273C45.6642 107.888 46.0762 107.598 46.5714 107.598C47.0667 107.598 47.4786 107.888 47.8082 108.273C48.05 108.555 48.2095 108.598 48.2857 108.598C48.3619 108.598 48.5214 108.555 48.7632 108.273C49.0928 107.888 49.5048 107.598 50 107.598C50.4952 107.598 50.9072 107.888 51.2368 108.273C51.4786 108.555 51.6381 108.598 51.7143 108.598C51.7905 108.598 51.9499 108.555 52.1918 108.273C52.5214 107.888 52.9333 107.598 53.4286 107.598C53.9238 107.598 54.3358 107.888 54.6653 108.273C54.9072 108.555 55.0667 108.598 55.1428 108.598C55.219 108.598 55.3785 108.555 55.6204 108.273C55.9499 107.888 56.3619 107.598 56.8571 107.598C57.3524 107.598 57.7643 107.888 58.0939 108.273C58.3358 108.555 58.4952 108.598 58.5714 108.598C58.6476 108.598 58.8071 108.555 59.0489 108.273C59.3785 107.888 59.7905 107.598 60.2857 107.598C60.7809 107.598 61.1929 107.888 61.5225 108.273C61.7643 108.555 61.9238 108.598 62 108.598C62.0762 108.598 62.2357 108.555 62.4775 108.273C62.8071 107.888 63.219 107.598 63.7143 107.598C64.2095 107.598 64.6215 107.888 64.951 108.273C65.1929 108.555 65.3524 108.598 65.4286 108.598C65.5048 108.598 65.6642 108.555 65.9061 108.273C66.2357 107.888 66.6476 107.598 67.1428 107.598C67.6381 107.598 68.05 107.888 68.3796 108.273L67.6204 108.923C67.3785 108.641 67.219 108.598 67.1428 108.598C67.0667 108.598 66.9072 108.641 66.6653 108.923C66.3358 109.308 65.9238 109.598 65.4286 109.598C64.9333 109.598 64.5214 109.308 64.1918 108.923C63.9499 108.641 63.7905 108.598 63.7143 108.598C63.6381 108.598 63.4786 108.641 63.2368 108.923C62.9072 109.308 62.4952 109.598 62 109.598C61.5048 109.598 61.0928 109.308 60.7632 108.923C60.5214 108.641 60.3619 108.598 60.2857 108.598C60.2095 108.598 60.05 108.641 59.8082 108.923C59.4786 109.308 59.0667 109.598 58.5714 109.598C58.0762 109.598 57.6642 109.308 57.3346 108.923C57.0928 108.641 56.9333 108.598 56.8571 108.598C56.7809 108.598 56.6215 108.641 56.3796 108.923C56.05 109.308 55.6381 109.598 55.1428 109.598C54.6476 109.598 54.2357 109.308 53.9061 108.923C53.6642 108.641 53.5048 108.598 53.4286 108.598C53.3524 108.598 53.1929 108.641 52.951 108.923C52.6215 109.308 52.2095 109.598 51.7143 109.598C51.219 109.598 50.8071 109.308 50.4775 108.923C50.2357 108.641 50.0762 108.598 50 108.598C49.9238 108.598 49.7643 108.641 49.5225 108.923C49.1929 109.308 48.7809 109.598 48.2857 109.598C47.7905 109.598 47.3785 109.308 47.0489 108.923C46.8071 108.641 46.6476 108.598 46.5714 108.598Z" fill="black"></path> <path fill-rule="evenodd" clip-rule="evenodd" d="M22.5714 108.598C22.4952 108.598 22.3358 108.641 22.0939 108.923C21.7643 109.308 21.3524 109.598 20.8571 109.598C20.3619 109.598 19.9499 109.308 19.6204 108.923L20.3796 108.273C20.6215 108.555 20.7809 108.598 20.8571 108.598C20.9333 108.598 21.0928 108.555 21.3346 108.273C21.6642 107.888 22.0762 107.598 22.5714 107.598C23.0667 107.598 23.4786 107.888 23.8082 108.273C24.05 108.555 24.2095 108.598 24.2857 108.598C24.3619 108.598 24.5214 108.555 24.7632 108.273C25.0928 107.888 25.5048 107.598 26 107.598C26.4952 107.598 26.9072 107.888 27.2368 108.273C27.4786 108.555 27.6381 108.598 27.7143 108.598C27.7905 108.598 27.9499 108.555 28.1918 108.273C28.5214 107.888 28.9333 107.598 29.4286 107.598C29.9238 107.598 30.3358 107.888 30.6653 108.273C30.9072 108.555 31.0667 108.598 31.1428 108.598C31.219 108.598 31.3785 108.555 31.6204 108.273C31.9499 107.888 32.3619 107.598 32.8571 107.598C33.3524 107.598 33.7643 107.888 34.0939 108.273C34.3358 108.555 34.4952 108.598 34.5714 108.598C34.6476 108.598 34.8071 108.555 35.0489 108.273C35.3785 107.888 35.7905 107.598 36.2857 107.598C36.7809 107.598 37.1929 107.888 37.5225 108.273C37.7643 108.555 37.9238 108.598 38 108.598C38.0762 108.598 38.2357 108.555 38.4775 108.273C38.8071 107.888 39.219 107.598 39.7143 107.598C40.2095 107.598 40.6215 107.888 40.951 108.273C41.1929 108.555 41.3524 108.598 41.4286 108.598C41.5048 108.598 41.6642 108.555 41.9061 108.273C42.2357 107.888 42.6476 107.598 43.1428 107.598C43.6381 107.598 44.05 107.888 44.3796 108.273L43.6204 108.923C43.3785 108.641 43.219 108.598 43.1428 108.598C43.0667 108.598 42.9072 108.641 42.6653 108.923C42.3358 109.308 41.9238 109.598 41.4286 109.598C40.9333 109.598 40.5214 109.308 40.1918 108.923C39.9499 108.641 39.7905 108.598 39.7143 108.598C39.6381 108.598 39.4786 108.641 39.2368 108.923C38.9072 109.308 38.4952 109.598 38 109.598C37.5048 109.598 37.0928 109.308 36.7632 108.923C36.5214 108.641 36.3619 108.598 36.2857 108.598C36.2095 108.598 36.05 108.641 35.8082 108.923C35.4786 109.308 35.0667 109.598 34.5714 109.598C34.0762 109.598 33.6642 109.308 33.3346 108.923C33.0928 108.641 32.9333 108.598 32.8571 108.598C32.7809 108.598 32.6215 108.641 32.3796 108.923C32.05 109.308 31.6381 109.598 31.1428 109.598C30.6476 109.598 30.2357 109.308 29.9061 108.923C29.6642 108.641 29.5048 108.598 29.4286 108.598C29.3524 108.598 29.1929 108.641 28.951 108.923C28.6215 109.308 28.2095 109.598 27.7143 109.598C27.219 109.598 26.8071 109.308 26.4775 108.923C26.2357 108.641 26.0762 108.598 26 108.598C25.9238 108.598 25.7643 108.641 25.5225 108.923C25.1929 109.308 24.7809 109.598 24.2857 109.598C23.7905 109.598 23.3785 109.308 23.0489 108.923C22.8071 108.641 22.6476 108.598 22.5714 108.598Z" fill="black"></path> <path fill-rule="evenodd" clip-rule="evenodd" d="M78 142.098H20V141.098H78V142.098Z" fill="black"></path> <path fill-rule="evenodd" clip-rule="evenodd" d="M78 146.098H20V145.098H78V146.098Z" fill="black"></path> <path fill-rule="evenodd" clip-rule="evenodd" d="M78 154.098H20V153.098H78V154.098Z" fill="black"></path> <path fill-rule="evenodd" clip-rule="evenodd" d="M78 150.098H20V149.098H78V150.098Z" fill="black"></path> <path fill-rule="evenodd" clip-rule="evenodd" d="M71 158.098H20V157.098H71V158.098Z" fill="black"></path> <path fill-rule="evenodd" clip-rule="evenodd" d="M1.31134e-07 75.0979L115 75.0979L115 76.5979L0 76.5979L1.31134e-07 75.0979Z" fill="black"></path> <path fill-rule="evenodd" clip-rule="evenodd" d="M8.74228e-08 127.098L115 127.098L115 128.098L0 128.098L8.74228e-08 127.098Z" fill="black"></path> <path fill-rule="evenodd" clip-rule="evenodd" d="M8.74228e-08 173.098L115 173.098L115 174.098L0 174.098L8.74228e-08 173.098Z" fill="black"></path> <path fill-rule="evenodd" clip-rule="evenodd" d="M8.74228e-08 232.098L115 232.098L115 233.098L0 233.098L8.74228e-08 232.098Z" fill="black"></path> <path fill-rule="evenodd" clip-rule="evenodd" d="M8.74228e-08 275.098L115 275.098L115 276.098L0 276.098L8.74228e-08 275.098Z" fill="black"></path> <path fill-rule="evenodd" clip-rule="evenodd" d="M45 246.098H20V245.098H45V246.098Z" fill="black"></path> <path fill-rule="evenodd" clip-rule="evenodd" d="M82 246.098H51V245.098H82V246.098Z" fill="black"></path> <path fill-rule="evenodd" clip-rule="evenodd" d="M82 254.098H51V253.098H82V254.098Z" fill="black"></path> <path fill-rule="evenodd" clip-rule="evenodd" d="M42 289.098H30V288.098H42V289.098Z" fill="black"></path> <path fill-rule="evenodd" clip-rule="evenodd" d="M42 299.098H30V298.098H42V299.098Z" fill="black"></path> <path fill-rule="evenodd" clip-rule="evenodd" d="M42 294.098H30V293.098H42V294.098Z" fill="black"></path> <path fill-rule="evenodd" clip-rule="evenodd" d="M42 311.098H30V310.098H42V311.098Z" fill="black"></path> <path fill-rule="evenodd" clip-rule="evenodd" d="M42 321.098H30V320.098H42V321.098Z" fill="black"></path> <path fill-rule="evenodd" clip-rule="evenodd" d="M42 316.098H30V315.098H42V316.098Z" fill="black"></path> <path fill-rule="evenodd" clip-rule="evenodd" d="M69 289.098H57V288.098H69V289.098Z" fill="black"></path> <path fill-rule="evenodd" clip-rule="evenodd" d="M69 299.098H57V298.098H69V299.098Z" fill="black"></path> <path fill-rule="evenodd" clip-rule="evenodd" d="M69 294.098H57V293.098H69V294.098Z" fill="black"></path> <path fill-rule="evenodd" clip-rule="evenodd" d="M69 311.098H57V310.098H69V311.098Z" fill="black"></path> <path fill-rule="evenodd" clip-rule="evenodd" d="M69 321.098H57V320.098H69V321.098Z" fill="black"></path> <path fill-rule="evenodd" clip-rule="evenodd" d="M69 316.098H57V315.098H69V316.098Z" fill="black"></path> <path fill-rule="evenodd" clip-rule="evenodd" d="M45 250.098H20V249.098H45V250.098Z" fill="black"></path> <path fill-rule="evenodd" clip-rule="evenodd" d="M71 262.098H51V261.098H71V262.098Z" fill="black"></path> <path fill-rule="evenodd" clip-rule="evenodd" d="M82 250.098H51V249.098H82V250.098Z" fill="black"></path> <path fill-rule="evenodd" clip-rule="evenodd" d="M82 258.098H51V257.098H82V258.098Z" fill="black"></path> <path fill-rule="evenodd" clip-rule="evenodd" d="M40.5 95.0979C41.8807 95.0979 43 93.9786 43 92.5979C43 91.2172 41.8807 90.0979 40.5 90.0979C39.1193 90.0979 38 91.2172 38 92.5979C38 93.9786 39.1193 95.0979 40.5 95.0979ZM40.5 96.0979C42.433 96.0979 44 94.5309 44 92.5979C44 90.6649 42.433 89.0979 40.5 89.0979C38.567 89.0979 37 90.6649 37 92.5979C37 94.5309 38.567 96.0979 40.5 96.0979Z" fill="black"></path> <path fill-rule="evenodd" clip-rule="evenodd" d="M6 70.0979C6.55228 70.0979 7 69.6502 7 69.0979C7 68.5456 6.55228 68.0979 6 68.0979C5.44772 68.0979 5 68.5456 5 69.0979C5 69.6502 5.44772 70.0979 6 70.0979ZM6 71.0979C7.10457 71.0979 8 70.2025 8 69.0979C8 67.9933 7.10457 67.0979 6 67.0979C4.89543 67.0979 4 67.9933 4 69.0979C4 70.2025 4.89543 71.0979 6 71.0979Z" fill="black"></path> <path fill-rule="evenodd" clip-rule="evenodd" d="M12 70.0979C12.5523 70.0979 13 69.6502 13 69.0979C13 68.5456 12.5523 68.0979 12 68.0979C11.4477 68.0979 11 68.5456 11 69.0979C11 69.6502 11.4477 70.0979 12 70.0979ZM12 71.0979C13.1046 71.0979 14 70.2025 14 69.0979C14 67.9933 13.1046 67.0979 12 67.0979C10.8954 67.0979 10 67.9933 10 69.0979C10 70.2025 10.8954 71.0979 12 71.0979Z" fill="black"></path> <path fill-rule="evenodd" clip-rule="evenodd" d="M18 70.0979C18.5523 70.0979 19 69.6502 19 69.0979C19 68.5456 18.5523 68.0979 18 68.0979C17.4477 68.0979 17 68.5456 17 69.0979C17 69.6502 17.4477 70.0979 18 70.0979ZM18 71.0979C19.1046 71.0979 20 70.2025 20 69.0979C20 67.9933 19.1046 67.0979 18 67.0979C16.8954 67.0979 16 67.9933 16 69.0979C16 70.2025 16.8954 71.0979 18 71.0979Z" fill="black"></path> <path fill-rule="evenodd" clip-rule="evenodd" d="M96 185.098H21V220.098H96V185.098ZM20 184.098V221.098H97V184.098H20Z" fill="black"></path> <path fill-rule="evenodd" clip-rule="evenodd" d="M50.0272 202.513C47.2985 202.414 44.9455 204.054 44.1048 206.37L43.1648 206.028C44.1575 203.293 46.9127 201.4 50.0635 201.514C53.046 201.622 55.5433 203.499 56.4741 206.072L55.5337 206.412C54.744 204.229 52.6091 202.607 50.0272 202.513Z" fill="black"></path> <path fill-rule="evenodd" clip-rule="evenodd" d="M9.65855 202.598L12.3796 205.773L11.6204 206.423L8.34147 202.598L11.6204 198.773L12.3796 199.423L9.65855 202.598Z" fill="black"></path> <path fill-rule="evenodd" clip-rule="evenodd" d="M73.5 93.0092L74.3258 93.7187C75.1557 94.4316 76.5 96.3806 76.5 98.7343C76.5 101.096 75.1469 102.874 74.2965 103.501L73.5 104.087V93.0092ZM74.5 95.4796V101.837C75.0142 101.108 75.5 100.027 75.5 98.7343C75.5 97.4463 75.0178 96.2908 74.5 95.4796Z" fill="black"></path> <path fill-rule="evenodd" clip-rule="evenodd" d="M64.8597 103.598H81.0403L76.3904 109.41L75.6096 108.786L78.9597 104.598H67.1403L70.052 107.759L69.3164 108.437L64.8597 103.598Z" fill="black"></path> <path fill-rule="evenodd" clip-rule="evenodd" d="M78 106.598H68V105.598H78V106.598Z" fill="black"></path> <path fill-rule="evenodd" clip-rule="evenodd" d="M74.5 198.098C75.8807 198.098 77 196.979 77 195.598C77 194.217 75.8807 193.098 74.5 193.098C73.1193 193.098 72 194.217 72 195.598C72 196.979 73.1193 198.098 74.5 198.098ZM74.5 199.098C76.433 199.098 78 197.531 78 195.598C78 193.665 76.433 192.098 74.5 192.098C72.567 192.098 71 193.665 71 195.598C71 197.531 72.567 199.098 74.5 199.098Z" fill="black"></path> <path fill-rule="evenodd" clip-rule="evenodd" d="M22.5 294.098C23.8807 294.098 25 292.979 25 291.598C25 290.217 23.8807 289.098 22.5 289.098C21.1193 289.098 20 290.217 20 291.598C20 292.979 21.1193 294.098 22.5 294.098ZM22.5 295.098C24.433 295.098 26 293.531 26 291.598C26 289.665 24.433 288.098 22.5 288.098C20.567 288.098 19 289.665 19 291.598C19 293.531 20.567 295.098 22.5 295.098Z" fill="black"></path> <path fill-rule="evenodd" clip-rule="evenodd" d="M22.5 316.098C23.8807 316.098 25 314.979 25 313.598C25 312.217 23.8807 311.098 22.5 311.098C21.1193 311.098 20 312.217 20 313.598C20 314.979 21.1193 316.098 22.5 316.098ZM22.5 317.098C24.433 317.098 26 315.531 26 313.598C26 311.665 24.433 310.098 22.5 310.098C20.567 310.098 19 311.665 19 313.598C19 315.531 20.567 317.098 22.5 317.098Z" fill="black"></path> <path fill-rule="evenodd" clip-rule="evenodd" d="M50.5 294.098C51.8807 294.098 53 292.979 53 291.598C53 290.217 51.8807 289.098 50.5 289.098C49.1193 289.098 48 290.217 48 291.598C48 292.979 49.1193 294.098 50.5 294.098ZM50.5 295.098C52.433 295.098 54 293.531 54 291.598C54 289.665 52.433 288.098 50.5 288.098C48.567 288.098 47 289.665 47 291.598C47 293.531 48.567 295.098 50.5 295.098Z" fill="black"></path> <path fill-rule="evenodd" clip-rule="evenodd" d="M76.5 294.098C77.8807 294.098 79 292.979 79 291.598C79 290.217 77.8807 289.098 76.5 289.098C75.1193 289.098 74 290.217 74 291.598C74 292.979 75.1193 294.098 76.5 294.098ZM76.5 295.098C78.433 295.098 80 293.531 80 291.598C80 289.665 78.433 288.098 76.5 288.098C74.567 288.098 73 289.665 73 291.598C73 293.531 74.567 295.098 76.5 295.098Z" fill="black"></path> <path fill-rule="evenodd" clip-rule="evenodd" d="M50.5 316.098C51.8807 316.098 53 314.979 53 313.598C53 312.217 51.8807 311.098 50.5 311.098C49.1193 311.098 48 312.217 48 313.598C48 314.979 49.1193 316.098 50.5 316.098ZM50.5 317.098C52.433 317.098 54 315.531 54 313.598C54 311.665 52.433 310.098 50.5 310.098C48.567 310.098 47 311.665 47 313.598C47 315.531 48.567 317.098 50.5 317.098Z" fill="black"></path> <path fill-rule="evenodd" clip-rule="evenodd" d="M76.5 316.098C77.8807 316.098 79 314.979 79 313.598C79 312.217 77.8807 311.098 76.5 311.098C75.1193 311.098 74 312.217 74 313.598C74 314.979 75.1193 316.098 76.5 316.098ZM76.5 317.098C78.433 317.098 80 315.531 80 313.598C80 311.665 78.433 310.098 76.5 310.098C74.567 310.098 73 311.665 73 313.598C73 315.531 74.567 317.098 76.5 317.098Z" fill="black"></path> <path fill-rule="evenodd" clip-rule="evenodd" d="M39.5714 206.598C39.4952 206.598 39.3358 206.641 39.0939 206.923C38.7643 207.308 38.3524 207.598 37.8571 207.598C37.3619 207.598 36.9499 207.308 36.6204 206.923L37.3796 206.273C37.6215 206.555 37.7809 206.598 37.8571 206.598C37.9333 206.598 38.0928 206.555 38.3346 206.273C38.6642 205.888 39.0762 205.598 39.5714 205.598C40.0667 205.598 40.4786 205.888 40.8082 206.273C41.05 206.555 41.2095 206.598 41.2857 206.598C41.3619 206.598 41.5214 206.555 41.7632 206.273C42.0928 205.888 42.5048 205.598 43 205.598C43.4952 205.598 43.9072 205.888 44.2368 206.273C44.4786 206.555 44.6381 206.598 44.7143 206.598C44.7905 206.598 44.9499 206.555 45.1918 206.273C45.5214 205.888 45.9333 205.598 46.4286 205.598C46.9238 205.598 47.3358 205.888 47.6653 206.273C47.9072 206.555 48.0667 206.598 48.1428 206.598C48.219 206.598 48.3785 206.555 48.6204 206.273C48.9499 205.888 49.3619 205.598 49.8571 205.598C50.3524 205.598 50.7643 205.888 51.0939 206.273C51.3358 206.555 51.4952 206.598 51.5714 206.598C51.6476 206.598 51.8071 206.555 52.0489 206.273C52.3785 205.888 52.7905 205.598 53.2857 205.598C53.7809 205.598 54.1929 205.888 54.5225 206.273C54.7643 206.555 54.9238 206.598 55 206.598C55.0762 206.598 55.2357 206.555 55.4775 206.273C55.8071 205.888 56.219 205.598 56.7143 205.598C57.2095 205.598 57.6215 205.888 57.951 206.273C58.1929 206.555 58.3524 206.598 58.4286 206.598C58.5048 206.598 58.6642 206.555 58.9061 206.273C59.2357 205.888 59.6476 205.598 60.1428 205.598C60.6381 205.598 61.05 205.888 61.3796 206.273L60.6204 206.923C60.3785 206.641 60.219 206.598 60.1428 206.598C60.0667 206.598 59.9072 206.641 59.6653 206.923C59.3358 207.308 58.9238 207.598 58.4286 207.598C57.9333 207.598 57.5214 207.308 57.1918 206.923C56.9499 206.641 56.7905 206.598 56.7143 206.598C56.6381 206.598 56.4786 206.641 56.2368 206.923C55.9072 207.308 55.4952 207.598 55 207.598C54.5048 207.598 54.0928 207.308 53.7632 206.923C53.5214 206.641 53.3619 206.598 53.2857 206.598C53.2095 206.598 53.05 206.641 52.8082 206.923C52.4786 207.308 52.0667 207.598 51.5714 207.598C51.0762 207.598 50.6642 207.308 50.3346 206.923C50.0928 206.641 49.9333 206.598 49.8571 206.598C49.7809 206.598 49.6215 206.641 49.3796 206.923C49.05 207.308 48.6381 207.598 48.1428 207.598C47.6476 207.598 47.2357 207.308 46.9061 206.923C46.6642 206.641 46.5048 206.598 46.4286 206.598C46.3524 206.598 46.1929 206.641 45.951 206.923C45.6215 207.308 45.2095 207.598 44.7143 207.598C44.219 207.598 43.8071 207.308 43.4775 206.923C43.2357 206.641 43.0762 206.598 43 206.598C42.9238 206.598 42.7643 206.641 42.5225 206.923C42.1929 207.308 41.7809 207.598 41.2857 207.598C40.7905 207.598 40.3785 207.308 40.0489 206.923C39.8071 206.641 39.6476 206.598 39.5714 206.598Z" fill="black"></path> <path fill-rule="evenodd" clip-rule="evenodd" d="M54.5714 210.598C54.4952 210.598 54.3358 210.641 54.0939 210.923C53.7643 211.308 53.3524 211.598 52.8571 211.598C52.3619 211.598 51.9499 211.308 51.6204 210.923L52.3796 210.273C52.6215 210.555 52.7809 210.598 52.8571 210.598C52.9333 210.598 53.0928 210.555 53.3346 210.273C53.6642 209.888 54.0762 209.598 54.5714 209.598C55.0667 209.598 55.4786 209.888 55.8082 210.273C56.05 210.555 56.2095 210.598 56.2857 210.598C56.3619 210.598 56.5214 210.555 56.7632 210.273C57.0928 209.888 57.5048 209.598 58 209.598C58.4952 209.598 58.9072 209.888 59.2368 210.273C59.4786 210.555 59.6381 210.598 59.7143 210.598C59.7905 210.598 59.9499 210.555 60.1918 210.273C60.5214 209.888 60.9333 209.598 61.4286 209.598C61.9238 209.598 62.3358 209.888 62.6653 210.273C62.9072 210.555 63.0667 210.598 63.1428 210.598C63.219 210.598 63.3785 210.555 63.6204 210.273C63.9499 209.888 64.3619 209.598 64.8571 209.598C65.3524 209.598 65.7643 209.888 66.0939 210.273C66.3358 210.555 66.4952 210.598 66.5714 210.598C66.6476 210.598 66.8071 210.555 67.0489 210.273C67.3785 209.888 67.7905 209.598 68.2857 209.598C68.7809 209.598 69.1929 209.888 69.5225 210.273C69.7643 210.555 69.9238 210.598 70 210.598C70.0762 210.598 70.2357 210.555 70.4775 210.273C70.8071 209.888 71.219 209.598 71.7143 209.598C72.2095 209.598 72.6215 209.888 72.951 210.273C73.1929 210.555 73.3524 210.598 73.4286 210.598C73.5048 210.598 73.6642 210.555 73.9061 210.273C74.2357 209.888 74.6476 209.598 75.1428 209.598C75.6381 209.598 76.05 209.888 76.3796 210.273L75.6204 210.923C75.3785 210.641 75.219 210.598 75.1428 210.598C75.0667 210.598 74.9072 210.641 74.6653 210.923C74.3358 211.308 73.9238 211.598 73.4286 211.598C72.9333 211.598 72.5214 211.308 72.1918 210.923C71.9499 210.641 71.7905 210.598 71.7143 210.598C71.6381 210.598 71.4786 210.641 71.2368 210.923C70.9072 211.308 70.4952 211.598 70 211.598C69.5048 211.598 69.0928 211.308 68.7632 210.923C68.5214 210.641 68.3619 210.598 68.2857 210.598C68.2095 210.598 68.05 210.641 67.8082 210.923C67.4786 211.308 67.0667 211.598 66.5714 211.598C66.0762 211.598 65.6642 211.308 65.3346 210.923C65.0928 210.641 64.9333 210.598 64.8571 210.598C64.7809 210.598 64.6215 210.641 64.3796 210.923C64.05 211.308 63.6381 211.598 63.1428 211.598C62.6476 211.598 62.2357 211.308 61.9061 210.923C61.6642 210.641 61.5048 210.598 61.4286 210.598C61.3524 210.598 61.1929 210.641 60.951 210.923C60.6215 211.308 60.2095 211.598 59.7143 211.598C59.219 211.598 58.8071 211.308 58.4775 210.923C58.2357 210.641 58.0762 210.598 58 210.598C57.9238 210.598 57.7643 210.641 57.5225 210.923C57.1929 211.308 56.7809 211.598 56.2857 211.598C55.7905 211.598 55.3785 211.308 55.0489 210.923C54.8071 210.641 54.6476 210.598 54.5714 210.598Z" fill="black"></path> <path d="M78 5.09791C78 2.33649 80.2386 0.0979156 83 0.0979156H255C257.761 0.0979156 260 2.33649 260 5.09792V363.098C260 365.859 257.761 368.098 255 368.098H83C80.2386 368.098 78 365.859 78 363.098V5.09791Z" fill="white"></path> <path fill-rule="evenodd" clip-rule="evenodd" d="M255 1.59792H83C81.067 1.59792 79.5 3.16492 79.5 5.09791V363.098C79.5 365.031 81.067 366.598 83 366.598H255C256.933 366.598 258.5 365.031 258.5 363.098V5.09792C258.5 3.16492 256.933 1.59792 255 1.59792ZM83 0.0979156C80.2386 0.0979156 78 2.33649 78 5.09791V363.098C78 365.859 80.2386 368.098 83 368.098H255C257.761 368.098 260 365.859 260 363.098V5.09792C260 2.33649 257.761 0.0979156 255 0.0979156H83Z" fill="black"></path> <path fill-rule="evenodd" clip-rule="evenodd" d="M259 113.098H78V112.098H259V113.098Z" fill="black"></path> <path fill-rule="evenodd" clip-rule="evenodd" d="M259 21.0979H78V19.5979H259V21.0979Z" fill="black"></path> <path fill-rule="evenodd" clip-rule="evenodd" d="M259 187.098H78V186.098H259V187.098Z" fill="black"></path> <path fill-rule="evenodd" clip-rule="evenodd" d="M259 259.098H78V258.098H259V259.098Z" fill="black"></path> <path fill-rule="evenodd" clip-rule="evenodd" d="M259 332.098H78V331.098H259V332.098Z" fill="black"></path> <path fill-rule="evenodd" clip-rule="evenodd" d="M206 350.098H130V349.098H206V350.098Z" fill="black"></path> <path fill-rule="evenodd" clip-rule="evenodd" d="M129 141.098H103V140.098H129V141.098Z" fill="black"></path> <path fill-rule="evenodd" clip-rule="evenodd" d="M146 149.098H103V148.098H146V149.098Z" fill="black"></path> <path fill-rule="evenodd" clip-rule="evenodd" d="M146 157.098H103V156.098H146V157.098Z" fill="black"></path> <path fill-rule="evenodd" clip-rule="evenodd" d="M146 165.098H103V164.098H146V165.098Z" fill="black"></path> <path fill-rule="evenodd" clip-rule="evenodd" d="M217 212.098H191V211.098H217V212.098Z" fill="black"></path> <path fill-rule="evenodd" clip-rule="evenodd" d="M234 220.098H191V219.098H234V220.098Z" fill="black"></path> <path fill-rule="evenodd" clip-rule="evenodd" d="M234 228.098H191V227.098H234V228.098Z" fill="black"></path> <path fill-rule="evenodd" clip-rule="evenodd" d="M234 236.098H191V235.098H234V236.098Z" fill="black"></path> <path fill-rule="evenodd" clip-rule="evenodd" d="M129 286.098H103V285.098H129V286.098Z" fill="black"></path> <path fill-rule="evenodd" clip-rule="evenodd" d="M146 294.098H103V293.098H146V294.098Z" fill="black"></path> <path fill-rule="evenodd" clip-rule="evenodd" d="M146 302.098H103V301.098H146V302.098Z" fill="black"></path> <path fill-rule="evenodd" clip-rule="evenodd" d="M146 310.098H103V309.098H146V310.098Z" fill="black"></path> <path fill-rule="evenodd" clip-rule="evenodd" d="M87 13.0979C88.1046 13.0979 89 12.2025 89 11.0979C89 9.99335 88.1046 9.09792 87 9.09792C85.8954 9.09792 85 9.99335 85 11.0979C85 12.2025 85.8954 13.0979 87 13.0979ZM87 14.0979C88.6569 14.0979 90 12.7548 90 11.0979C90 9.44106 88.6569 8.09792 87 8.09792C85.3431 8.09792 84 9.44106 84 11.0979C84 12.7548 85.3431 14.0979 87 14.0979Z" fill="black"></path> <path fill-rule="evenodd" clip-rule="evenodd" d="M96 13.0979C97.1046 13.0979 98 12.2025 98 11.0979C98 9.99335 97.1046 9.09792 96 9.09792C94.8954 9.09792 94 9.99335 94 11.0979C94 12.2025 94.8954 13.0979 96 13.0979ZM96 14.0979C97.6569 14.0979 99 12.7548 99 11.0979C99 9.44106 97.6569 8.09792 96 8.09792C94.3431 8.09792 93 9.44106 93 11.0979C93 12.7548 94.3431 14.0979 96 14.0979Z" fill="black"></path> <path fill-rule="evenodd" clip-rule="evenodd" d="M105 13.0979C106.105 13.0979 107 12.2025 107 11.0979C107 9.99335 106.105 9.09792 105 9.09792C103.895 9.09792 103 9.99335 103 11.0979C103 12.2025 103.895 13.0979 105 13.0979ZM105 14.0979C106.657 14.0979 108 12.7548 108 11.0979C108 9.44106 106.657 8.09792 105 8.09792C103.343 8.09792 102 9.44106 102 11.0979C102 12.7548 103.343 14.0979 105 14.0979Z" fill="black"></path> <path fill-rule="evenodd" clip-rule="evenodd" d="M228 38.0979H110V95.0979H228V38.0979ZM109 37.0979V96.0979H229V37.0979H109Z" fill="black"></path> <path fill-rule="evenodd" clip-rule="evenodd" d="M205 86.0979H132V85.0979H205V86.0979Z" fill="black"></path> <path fill-rule="evenodd" clip-rule="evenodd" d="M205 79.0979H132V77.0979H205V79.0979Z" fill="black"></path> <path fill-rule="evenodd" clip-rule="evenodd" d="M155.925 65.5979C155.617 65.5979 155.278 65.7124 154.901 65.997C154.395 66.379 153.85 66.5979 153.275 66.5979C152.7 66.5979 152.155 66.379 151.649 65.997L152.251 65.1988C152.628 65.4835 152.967 65.5979 153.275 65.5979C153.583 65.5979 153.922 65.4835 154.299 65.1988C154.805 64.8168 155.35 64.5979 155.925 64.5979C156.5 64.5979 157.045 64.8168 157.551 65.1988C157.928 65.4835 158.267 65.5979 158.575 65.5979C158.883 65.5979 159.222 65.4835 159.599 65.1988C160.105 64.8168 160.65 64.5979 161.225 64.5979C161.8 64.5979 162.345 64.8168 162.851 65.1988C163.228 65.4835 163.567 65.5979 163.875 65.5979C164.183 65.5979 164.522 65.4835 164.899 65.1988C165.405 64.8168 165.95 64.5979 166.525 64.5979C167.1 64.5979 167.645 64.8168 168.151 65.1988C168.528 65.4835 168.867 65.5979 169.175 65.5979C169.483 65.5979 169.822 65.4835 170.199 65.1988C170.705 64.8168 171.25 64.5979 171.825 64.5979C172.4 64.5979 172.945 64.8168 173.451 65.1988C173.828 65.4835 174.167 65.5979 174.475 65.5979C174.783 65.5979 175.122 65.4835 175.499 65.1988C176.005 64.8168 176.55 64.5979 177.125 64.5979C177.7 64.5979 178.245 64.8168 178.751 65.1988C179.128 65.4835 179.467 65.5979 179.775 65.5979C180.083 65.5979 180.422 65.4835 180.799 65.1988C181.305 64.8168 181.85 64.5979 182.425 64.5979C183 64.5979 183.545 64.8168 184.051 65.1988C184.428 65.4835 184.767 65.5979 185.075 65.5979C185.383 65.5979 185.722 65.4835 186.099 65.1988C186.605 64.8168 187.15 64.5979 187.725 64.5979C188.3 64.5979 188.845 64.8168 189.351 65.1988L188.749 65.997C188.372 65.7124 188.033 65.5979 187.725 65.5979C187.417 65.5979 187.078 65.7124 186.701 65.997C186.195 66.379 185.65 66.5979 185.075 66.5979C184.5 66.5979 183.955 66.379 183.449 65.997C183.072 65.7124 182.733 65.5979 182.425 65.5979C182.117 65.5979 181.778 65.7124 181.401 65.997C180.895 66.379 180.35 66.5979 179.775 66.5979C179.2 66.5979 178.655 66.379 178.149 65.997C177.772 65.7124 177.433 65.5979 177.125 65.5979C176.817 65.5979 176.478 65.7124 176.101 65.997C175.595 66.379 175.05 66.5979 174.475 66.5979C173.9 66.5979 173.355 66.379 172.849 65.997C172.472 65.7124 172.133 65.5979 171.825 65.5979C171.517 65.5979 171.178 65.7124 170.801 65.997C170.295 66.379 169.75 66.5979 169.175 66.5979C168.6 66.5979 168.055 66.379 167.549 65.997C167.172 65.7124 166.833 65.5979 166.525 65.5979C166.217 65.5979 165.878 65.7124 165.501 65.997C164.995 66.379 164.45 66.5979 163.875 66.5979C163.3 66.5979 162.755 66.379 162.249 65.997C161.872 65.7124 161.533 65.5979 161.225 65.5979C160.917 65.5979 160.578 65.7124 160.201 65.997C159.695 66.379 159.15 66.5979 158.575 66.5979C158 66.5979 157.455 66.379 156.949 65.997C156.572 65.7124 156.233 65.5979 155.925 65.5979Z" fill="black"></path> <path fill-rule="evenodd" clip-rule="evenodd" d="M169.5 57.5979C164.107 57.5979 159.544 61.1557 158.032 66.0535L157.076 65.7585C158.714 60.4535 163.656 56.5979 169.5 56.5979C175.031 56.5979 179.753 60.0514 181.632 64.9179L180.699 65.278C178.964 60.7843 174.604 57.5979 169.5 57.5979Z" fill="black"></path> <path fill-rule="evenodd" clip-rule="evenodd" d="M245.793 70.5979L240.646 65.4515L241.354 64.7444L247.207 70.5979L241.354 76.4515L240.646 75.7444L245.793 70.5979Z" fill="black"></path> <path fill-rule="evenodd" clip-rule="evenodd" d="M91.7071 70.5979L96.8536 75.7444L96.1465 76.4515L90.2929 70.5979L96.1465 64.7444L96.8536 65.4515L91.7071 70.5979Z" fill="black"></path> <path fill-rule="evenodd" clip-rule="evenodd" d="M168 332.098V113.098H169V332.098H168Z" fill="black"></path> <path fill-rule="evenodd" clip-rule="evenodd" d="M212.287 281.188L211.5 280.638V281.598V298.098V298.598H199H198H196.793L197.646 299.451L204.699 306.504C204.509 306.568 204.326 306.598 204.15 306.598C203.642 306.598 203.077 306.352 202.449 305.74C201.71 305.019 200.908 304.598 200.05 304.598C199.192 304.598 198.39 305.019 197.651 305.74L198.349 306.456C198.977 305.844 199.542 305.598 200.05 305.598C200.558 305.598 201.123 305.844 201.751 306.456C202.49 307.177 203.292 307.598 204.15 307.598C205.008 307.598 205.81 307.177 206.549 306.456C207.177 305.844 207.742 305.598 208.25 305.598C208.758 305.598 209.323 305.844 209.951 306.456C210.69 307.177 211.492 307.598 212.35 307.598C213.208 307.598 214.01 307.177 214.749 306.456C215.377 305.844 215.942 305.598 216.45 305.598C216.958 305.598 217.523 305.844 218.151 306.456C218.89 307.177 219.692 307.598 220.55 307.598C221.408 307.598 222.21 307.177 222.949 306.456C223.577 305.844 224.142 305.598 224.65 305.598C225.158 305.598 225.723 305.844 226.351 306.456L227.049 305.74C226.31 305.019 225.508 304.598 224.65 304.598C223.792 304.598 222.99 305.019 222.251 305.74C221.623 306.352 221.058 306.598 220.55 306.598C220.441 306.598 220.33 306.587 220.216 306.563L223.451 303.098H223.5V303.045L226.866 299.439L227.651 298.598H226.5H212.139L212.257 298.527C213.159 297.986 214.336 296.932 215.291 295.5C216.249 294.063 217 292.218 217 290.098C217 287.98 216.251 286.056 215.3 284.522C214.351 282.991 213.181 281.814 212.287 281.188ZM223.016 302.098L225.349 299.598H199.207L201.707 302.098H223.016ZM202.707 303.098L205.588 305.979C205.674 305.906 205.762 305.827 205.851 305.74C206.59 305.019 207.392 304.598 208.25 304.598C209.108 304.598 209.91 305.019 210.649 305.74C211.277 306.352 211.842 306.598 212.35 306.598C212.858 306.598 213.423 306.352 214.051 305.74C214.79 305.019 215.592 304.598 216.45 304.598C217.308 304.598 218.11 305.019 218.849 305.74C218.994 305.881 219.136 306.003 219.274 306.107L222.083 303.098H202.707ZM212.5 297.128V282.654C213.133 283.243 213.838 284.061 214.45 285.049C215.333 286.473 216 288.216 216 290.098C216 291.977 215.334 293.632 214.459 294.946C213.844 295.869 213.133 296.609 212.5 297.128Z" fill="black"></path> <path fill-rule="evenodd" clip-rule="evenodd" d="M214 164.098C220.075 164.098 225 159.173 225 153.098C225 151.832 224.786 150.615 224.392 149.483C224.209 149.544 224.014 149.571 223.818 149.574C223.606 149.578 223.382 149.553 223.151 149.505C223.163 152.619 222.287 156.285 219.336 158.968C217.037 161.058 214.301 161.921 211.835 162.158C210.233 162.312 208.733 162.203 207.519 161.987C209.337 163.314 211.577 164.098 214 164.098ZM222.146 149.175C222.224 152.19 221.438 155.706 218.664 158.228C216.563 160.138 214.049 160.941 211.74 161.163C209.574 161.371 207.614 161.064 206.398 160.7L219.587 147.511C220.443 148.25 221.334 148.823 222.146 149.175ZM218.855 146.828C218.081 146.047 217.468 145.225 217.079 144.466C214.448 144.484 211.346 145.186 208.836 147.468C206.745 149.369 205.785 151.832 205.471 154.225C205.194 156.339 205.425 158.377 205.812 159.872L218.855 146.828ZM216.689 143.473C216.644 143.299 216.614 143.128 216.602 142.963C216.589 142.779 216.598 142.594 216.636 142.416C215.791 142.208 214.908 142.098 214 142.098C207.925 142.098 203 147.023 203 153.098C203 155.162 203.568 157.093 204.557 158.744C204.336 157.366 204.262 155.754 204.479 154.095C204.815 151.531 205.855 148.827 208.164 146.728C210.786 144.344 213.975 143.556 216.689 143.473ZM217.601 142.701C220.457 143.69 222.779 145.822 224.019 148.551C223.96 148.564 223.889 148.573 223.803 148.574C223.543 148.579 223.198 148.511 222.783 148.355C221.956 148.042 220.949 147.411 219.979 146.521C219.008 145.632 218.291 144.685 217.908 143.888C217.715 143.488 217.618 143.15 217.6 142.891C217.595 142.818 217.596 142.755 217.601 142.701ZM214 165.098C220.627 165.098 226 159.725 226 153.098C226 146.47 220.627 141.098 214 141.098C207.373 141.098 202 146.47 202 153.098C202 159.725 207.373 165.098 214 165.098Z" fill="black"></path> <path d="M121.823 231.881C119.9 232.893 117.85 233.391 115.706 233.391C114.051 233.391 112.68 232.908 111.608 231.943C110.536 230.993 110 229.762 110 228.267C110 226.834 110.489 225.604 111.482 224.545C112.459 223.486 114.051 222.489 116.242 221.555C115.817 220.48 115.612 219.483 115.612 218.564C115.612 217.147 116.195 215.886 117.346 214.78C118.512 213.659 119.821 213.098 121.287 213.098C122.296 213.098 123.1 213.394 123.746 213.986C124.376 214.577 124.692 215.341 124.692 216.275C124.692 218.658 122.768 220.48 118.938 221.695C119.206 222.458 119.695 223.611 120.435 225.152C121.429 223.439 122.532 222.256 123.762 221.617C124.975 220.979 126.725 220.667 129.027 220.667H133.22C135.821 220.667 137.507 220.511 138.296 220.215C139.084 219.935 139.478 219.296 139.478 218.315C139.478 217.443 139.021 216.82 138.091 216.446L139.998 214.593C140.833 215.278 141.259 216.135 141.259 217.163C141.259 218.642 140.392 219.919 138.642 220.994C136.893 222.069 134.828 222.614 132.447 222.614H131.438C130.067 225.791 127.592 228.454 124.045 230.619C125.543 232.27 127.198 233.547 129.011 234.45C130.839 235.354 132.668 235.805 134.481 235.805C136.12 235.805 137.444 235.338 138.453 234.404C139.462 233.469 139.967 232.239 139.967 230.728C139.967 229.311 139.273 228.314 137.87 227.738L139.998 225.76C141.322 226.383 142 227.535 142 229.217C142 231.413 141.086 233.282 139.257 234.808C137.429 236.335 135.19 237.098 132.542 237.098C130.634 237.098 128.759 236.646 126.883 235.727C125.007 234.824 123.32 233.547 121.823 231.881ZM121.129 231.055C119.316 228.844 117.771 225.931 116.463 222.302C114.004 223.439 112.759 225.137 112.759 227.426C112.759 228.735 113.184 229.809 114.051 230.65C114.918 231.491 116.006 231.912 117.33 231.912C118.418 231.912 119.679 231.631 121.129 231.055ZM118.654 220.932C121.224 219.842 122.516 218.284 122.516 216.228C122.516 215.481 122.359 214.92 122.028 214.546C121.712 214.173 121.224 213.986 120.577 213.986C119.821 213.986 119.19 214.297 118.67 214.92C118.166 215.543 117.898 216.306 117.898 217.225C117.913 218.144 118.15 219.39 118.654 220.932ZM129.421 222.614H127.876C124.581 222.614 122.233 223.72 120.83 225.931C121.665 227.442 122.532 228.797 123.462 229.996C126.378 228.407 128.365 225.947 129.421 222.614Z" fill="black"></path> </g> <defs> <clipPath id="clip0"> <rect width="339" height="368" fill="white" transform="translate(0 0.0979156)"></rect> </clipPath> </defs> </svg> 