<?xml version="1.0" encoding="UTF-8"?> <svg xmlns="http://www.w3.org/2000/svg" width="410" height="392" viewBox="0 0 410 392" fill="none"> <g clip-path="url(#clip0)"> <rect width="410" height="391" transform="translate(0 0.597916)" fill="white"></rect> <path fill-rule="evenodd" clip-rule="evenodd" d="M2.6977 64.1123L47.2867 87.3896L46.8239 88.2761L2.23493 64.9988L2.6977 64.1123ZM2.90138 123.08L47.2834 145.84L46.8271 146.73L2.44506 123.97L2.90138 123.08ZM3.00525 168.393L47.2839 191.153L46.8267 192.043L2.54809 169.283L3.00525 168.393ZM2.80319 227.779L47.2887 251.263L46.8218 252.147L2.33634 228.663L2.80319 227.779ZM2.49075 271.229L47.2866 294.609L46.8239 295.496L2.02805 272.115L2.49075 271.229Z" fill="black"></path> <path fill-rule="evenodd" clip-rule="evenodd" d="M154.123 117.997L46.3906 146.864V145.864L154.123 116.997V117.997Z" fill="black"></path> <path fill-rule="evenodd" clip-rule="evenodd" d="M154.498 163.303L47.1096 192.047L47.1099 191.047L154.498 162.303L154.498 163.303Z" fill="black"></path> <path fill-rule="evenodd" clip-rule="evenodd" d="M154.103 223.494L46.3698 252.361V251.361L154.103 222.494V223.494Z" fill="black"></path> <path fill-rule="evenodd" clip-rule="evenodd" d="M154.657 266.457L46.9245 295.324V294.324L154.657 265.457V266.457Z" fill="black"></path> <path fill-rule="evenodd" clip-rule="evenodd" d="M89.1928 253.503L65.03 259.977V258.977L89.1928 252.503V253.503Z" fill="black"></path> <path fill-rule="evenodd" clip-rule="evenodd" d="M135.428 241.114L94.9918 251.949V250.949L135.428 240.114V241.114Z" fill="black"></path> <path fill-rule="evenodd" clip-rule="evenodd" d="M135.428 249.119L94.9918 259.954V258.954L135.428 248.119V249.119Z" fill="black"></path> <path fill-rule="evenodd" clip-rule="evenodd" d="M86.2933 297.306L74.6952 300.413V299.413L86.2933 296.306V297.306Z" fill="black"></path> <path fill-rule="evenodd" clip-rule="evenodd" d="M86.2933 307.312L74.6952 310.419V309.419L86.2933 306.312V307.312Z" fill="black"></path> <path fill-rule="evenodd" clip-rule="evenodd" d="M86.2933 302.309L74.6952 305.416V304.416L86.2933 301.309V302.309Z" fill="black"></path> <path fill-rule="evenodd" clip-rule="evenodd" d="M86.2933 319.319L74.6952 322.427V321.427L86.2933 318.319V319.319Z" fill="black"></path> <path fill-rule="evenodd" clip-rule="evenodd" d="M86.2933 329.325L74.6952 332.433V331.433L86.2933 328.325V329.325Z" fill="black"></path> <path fill-rule="evenodd" clip-rule="evenodd" d="M86.2933 324.322L74.6952 327.43V326.43L86.2933 323.322V324.322Z" fill="black"></path> <path fill-rule="evenodd" clip-rule="evenodd" d="M112.389 290.313L100.791 293.421V292.421L112.389 289.313V290.313Z" fill="black"></path> <path fill-rule="evenodd" clip-rule="evenodd" d="M112.389 300.319L100.791 303.427V302.427L112.389 299.319V300.319Z" fill="black"></path> <path fill-rule="evenodd" clip-rule="evenodd" d="M112.389 295.316L100.791 298.424V297.424L112.389 294.316V295.316Z" fill="black"></path> <path fill-rule="evenodd" clip-rule="evenodd" d="M136.552 283.839L124.954 286.946V285.946L136.552 282.839V283.839Z" fill="black"></path> <path fill-rule="evenodd" clip-rule="evenodd" d="M136.552 293.845L124.954 296.953V295.953L136.552 292.845V293.845Z" fill="black"></path> <path fill-rule="evenodd" clip-rule="evenodd" d="M136.552 288.842L124.954 291.95V290.95L136.552 287.842V288.842Z" fill="black"></path> <path fill-rule="evenodd" clip-rule="evenodd" d="M112.389 312.326L100.791 315.434V314.434L112.389 311.326V312.326Z" fill="black"></path> <path fill-rule="evenodd" clip-rule="evenodd" d="M112.389 322.333L100.791 325.44V324.44L112.389 321.333V322.333Z" fill="black"></path> <path fill-rule="evenodd" clip-rule="evenodd" d="M112.389 317.33L100.791 320.437V319.437L112.389 316.33V317.33Z" fill="black"></path> <path fill-rule="evenodd" clip-rule="evenodd" d="M136.552 305.852L124.954 308.96V307.96L136.552 304.852V305.852Z" fill="black"></path> <path fill-rule="evenodd" clip-rule="evenodd" d="M136.552 315.858L124.954 318.966V317.966L136.552 314.858V315.858Z" fill="black"></path> <path fill-rule="evenodd" clip-rule="evenodd" d="M136.552 310.855L124.954 313.963V312.963L136.552 309.855V310.855Z" fill="black"></path> <path fill-rule="evenodd" clip-rule="evenodd" d="M89.1928 257.505L65.03 263.979V262.979L89.1928 256.505V257.505Z" fill="black"></path> <path fill-rule="evenodd" clip-rule="evenodd" d="M114.322 262.779L94.9918 267.958V266.958L114.322 261.779V262.779Z" fill="black"></path> <path fill-rule="evenodd" clip-rule="evenodd" d="M135.428 245.116L94.9918 255.951V254.951L135.428 244.116V245.116Z" fill="black"></path> <path fill-rule="evenodd" clip-rule="evenodd" d="M135.428 253.121L94.9918 263.956V262.956L135.428 252.121V253.121Z" fill="black"></path> <path fill-rule="evenodd" clip-rule="evenodd" d="M67.4463 307.359C68.7811 307.001 69.8632 305.591 69.8632 304.209C69.8632 302.828 68.7811 301.997 67.4463 302.355C66.1115 302.713 65.0295 304.123 65.0295 305.505C65.0295 306.886 66.1115 307.717 67.4463 307.359ZM67.4463 308.359C69.3146 307.859 70.8291 305.885 70.8291 303.951C70.8291 302.016 69.3146 300.854 67.4463 301.355C65.5781 301.855 64.0636 303.829 64.0636 305.763C64.0636 307.698 65.5781 308.86 67.4463 308.359Z" fill="black"></path> <path fill-rule="evenodd" clip-rule="evenodd" d="M67.4463 329.373C68.7811 329.015 69.8632 327.605 69.8632 326.223C69.8632 324.841 68.7811 324.011 67.4463 324.368C66.1115 324.726 65.0295 326.136 65.0295 327.518C65.0295 328.9 66.1115 329.73 67.4463 329.373ZM67.4463 330.373C69.3146 329.872 70.8291 327.898 70.8291 325.964C70.8291 324.03 69.3146 322.868 67.4463 323.368C65.5781 323.869 64.0636 325.843 64.0636 327.777C64.0636 329.711 65.5781 330.873 67.4463 330.373Z" fill="black"></path> <path fill-rule="evenodd" clip-rule="evenodd" d="M94.5086 300.108C95.8434 299.75 96.9254 298.34 96.9254 296.958C96.9254 295.576 95.8434 294.746 94.5086 295.104C93.1738 295.461 92.0917 296.871 92.0917 298.253C92.0917 299.635 93.1738 300.465 94.5086 300.108ZM94.5086 301.108C96.3768 300.607 97.8914 298.633 97.8914 296.699C97.8914 294.765 96.3768 293.603 94.5086 294.104C92.6403 294.604 91.1258 296.578 91.1258 298.512C91.1258 300.446 92.6403 301.608 94.5086 301.108Z" fill="black"></path> <path fill-rule="evenodd" clip-rule="evenodd" d="M119.638 293.374C120.973 293.017 122.055 291.607 122.055 290.225C122.055 288.843 120.973 288.013 119.638 288.37C118.303 288.728 117.221 290.138 117.221 291.52C117.221 292.902 118.303 293.732 119.638 293.374ZM119.638 294.374C121.506 293.874 123.021 291.9 123.021 289.966C123.021 288.032 121.506 286.87 119.638 287.37C117.77 287.871 116.255 289.845 116.255 291.779C116.255 293.713 117.77 294.875 119.638 294.374Z" fill="black"></path> <path fill-rule="evenodd" clip-rule="evenodd" d="M94.5086 322.121C95.8434 321.764 96.9254 320.353 96.9254 318.972C96.9254 317.59 95.8434 316.759 94.5086 317.117C93.1738 317.475 92.0917 318.885 92.0917 320.267C92.0917 321.649 93.1738 322.479 94.5086 322.121ZM94.5086 323.121C96.3768 322.621 97.8914 320.647 97.8914 318.713C97.8914 316.779 96.3768 315.616 94.5086 316.117C92.6403 316.618 91.1258 318.591 91.1258 320.526C91.1258 322.46 92.6403 323.622 94.5086 323.121Z" fill="black"></path> <path fill-rule="evenodd" clip-rule="evenodd" d="M119.638 315.388C120.973 315.03 122.055 313.62 122.055 312.238C122.055 310.856 120.973 310.026 119.638 310.384C118.303 310.741 117.221 312.151 117.221 313.533C117.221 314.915 118.303 315.746 119.638 315.388ZM119.638 316.388C121.506 315.887 123.021 313.913 123.021 311.979C123.021 310.045 121.506 308.883 119.638 309.384C117.77 309.884 116.255 311.858 116.255 313.792C116.255 315.726 117.77 316.888 119.638 316.388Z" fill="black"></path> <path fill-rule="evenodd" clip-rule="evenodd" d="M89.6275 253.386L65.2864 259.908V258.908L89.6275 252.386V253.386Z" fill="black"></path> <path fill-rule="evenodd" clip-rule="evenodd" d="M89.6275 257.32L65.2864 263.843V262.843L89.6275 256.32V257.32Z" fill="black"></path> <path fill-rule="evenodd" clip-rule="evenodd" d="M89.6275 261.255L65.2864 267.777V266.777L89.6275 260.255V261.255Z" fill="black"></path> <path fill-rule="evenodd" clip-rule="evenodd" d="M134.37 180.804L67.115 198.825V235.04L134.37 217.019V180.804ZM66.1491 198.084V236.299L135.336 217.76V179.545L66.1491 198.084Z" fill="black"></path> <path fill-rule="evenodd" clip-rule="evenodd" d="M145.352 196.263L142.699 194.226L143.382 193.336L146.718 195.897L143.382 200.246L142.699 199.721L145.352 196.263Z" fill="black"></path> <path fill-rule="evenodd" clip-rule="evenodd" d="M56.4127 219.8L59.0666 221.836L58.3836 222.726L55.0467 220.166L58.3836 215.817L59.0666 216.341L56.4127 219.8Z" fill="black"></path> <path fill-rule="evenodd" clip-rule="evenodd" d="M112.14 162.652L66.8696 174.782V173.782L112.14 161.652V162.652Z" fill="black"></path> <path fill-rule="evenodd" clip-rule="evenodd" d="M136.056 146.382L66.8696 164.921V165.921L136.056 147.382V146.382Z" fill="black"></path> <path fill-rule="evenodd" clip-rule="evenodd" d="M136.056 150.804L66.8696 169.342V170.342L136.056 151.804V150.804Z" fill="black"></path> <path fill-rule="evenodd" clip-rule="evenodd" d="M136.056 141.961L66.8696 160.499V161.499L136.056 142.961V141.961Z" fill="black"></path> <path fill-rule="evenodd" clip-rule="evenodd" d="M136.056 137.539L66.8696 156.078V157.078L136.056 138.539V137.539Z" fill="black"></path> <path fill-rule="evenodd" clip-rule="evenodd" d="M80.0575 118.181C79.9904 118.199 79.8428 118.278 79.6157 118.614C79.3038 119.074 78.9124 119.465 78.4405 119.591C77.9686 119.718 77.5771 119.536 77.2653 119.243L77.9986 118.396C78.2258 118.609 78.3734 118.609 78.4405 118.591C78.5076 118.573 78.6552 118.494 78.8823 118.159C79.1942 117.699 79.5857 117.308 80.0575 117.181C80.5294 117.055 80.9209 117.236 81.2328 117.529C81.4599 117.743 81.6075 117.743 81.6746 117.725C81.7417 117.707 81.8893 117.628 82.1165 117.293C82.4283 116.832 82.8198 116.441 83.2917 116.315C83.7636 116.188 84.155 116.37 84.4669 116.663C84.694 116.876 84.8416 116.876 84.9087 116.858C84.9759 116.84 85.1234 116.761 85.3506 116.426C85.6625 115.966 86.0539 115.575 86.5258 115.448C86.9977 115.322 87.3891 115.503 87.701 115.796C87.9282 116.01 88.0757 116.01 88.1429 115.992C88.21 115.974 88.3576 115.895 88.5847 115.559C88.8966 115.099 89.288 114.708 89.7599 114.582C90.2318 114.455 90.6233 114.637 90.9352 114.93C91.1623 115.143 91.3099 115.143 91.377 115.125C91.4441 115.107 91.5917 115.028 91.8188 114.693C92.1307 114.233 92.5222 113.842 92.9941 113.715C93.466 113.589 93.8574 113.77 94.1693 114.063C94.3964 114.277 94.544 114.276 94.6111 114.258C94.6783 114.24 94.8258 114.162 95.053 113.826C95.3648 113.366 95.7563 112.975 96.2282 112.849C96.7001 112.722 97.0915 112.903 97.4034 113.197C97.6306 113.41 97.7781 113.41 97.8453 113.392C97.9124 113.374 98.06 113.295 98.2871 112.96C98.599 112.499 98.9904 112.108 99.4623 111.982C99.9342 111.856 100.326 112.037 100.638 112.33L99.9042 113.177C99.677 112.964 99.5294 112.964 99.4623 112.982C99.3952 113 99.2476 113.079 99.0205 113.414C98.7086 113.874 98.3171 114.265 97.8453 114.392C97.3734 114.518 96.9819 114.337 96.67 114.044C96.4429 113.83 96.2953 113.831 96.2282 113.849C96.1611 113.867 96.0135 113.945 95.7863 114.281C95.4745 114.741 95.083 115.132 94.6111 115.258C94.1392 115.385 93.7478 115.204 93.4359 114.91C93.2088 114.697 93.0612 114.697 92.9941 114.715C92.9269 114.733 92.7794 114.812 92.5522 115.147C92.2403 115.607 91.8489 115.999 91.377 116.125C90.9051 116.251 90.5137 116.07 90.2018 115.777C89.9746 115.564 89.8271 115.564 89.7599 115.582C89.6928 115.6 89.5452 115.679 89.3181 116.014C89.0062 116.474 88.6148 116.865 88.1429 116.992C87.671 117.118 87.2795 116.937 86.9676 116.644C86.7405 116.43 86.5929 116.43 86.5258 116.448C86.4587 116.466 86.3111 116.545 86.084 116.88C85.7721 117.341 85.3806 117.732 84.9087 117.858C84.4368 117.985 84.0454 117.803 83.7335 117.51C83.5064 117.297 83.3588 117.297 83.2917 117.315C83.2245 117.333 83.077 117.412 82.8498 117.747C82.538 118.207 82.1465 118.598 81.6746 118.725C81.2027 118.851 80.8113 118.67 80.4994 118.377C80.2722 118.163 80.1247 118.163 80.0575 118.181Z" fill="black"></path> <path fill-rule="evenodd" clip-rule="evenodd" d="M115.902 103.694C115.835 103.712 115.688 103.791 115.461 104.126C115.149 104.586 114.757 104.977 114.285 105.104C113.813 105.23 113.422 105.049 113.11 104.756L113.844 103.909C114.071 104.122 114.218 104.122 114.285 104.104C114.353 104.086 114.5 104.007 114.727 103.672C115.039 103.212 115.431 102.82 115.902 102.694C116.374 102.568 116.766 102.749 117.078 103.042C117.305 103.256 117.452 103.255 117.52 103.237C117.587 103.219 117.734 103.14 117.961 102.805C118.273 102.345 118.665 101.954 119.137 101.827C119.608 101.701 120 101.882 120.312 102.175C120.539 102.389 120.687 102.389 120.754 102.371C120.821 102.353 120.968 102.274 121.195 101.939C121.507 101.478 121.899 101.087 122.371 100.961C122.843 100.834 123.234 101.016 123.546 101.309C123.773 101.522 123.921 101.522 123.988 101.504C124.055 101.486 124.202 101.407 124.43 101.072C124.741 100.612 125.133 100.221 125.605 100.094C126.077 99.9679 126.468 100.149 126.78 100.442C127.007 100.656 127.155 100.656 127.222 100.638C127.289 100.62 127.437 100.541 127.664 100.206C127.976 99.7452 128.367 99.3542 128.839 99.2277C129.311 99.1013 129.702 99.2826 130.014 99.5757C130.241 99.7892 130.389 99.789 130.456 99.771C130.523 99.753 130.671 99.6741 130.898 99.3389C131.21 98.8787 131.601 98.4876 132.073 98.3611C132.545 98.2347 132.936 98.416 133.248 98.7091C133.475 98.9226 133.623 98.9224 133.69 98.9044C133.757 98.8864 133.905 98.8076 134.132 98.4723C134.444 98.0121 134.835 97.621 135.307 97.4946C135.779 97.3681 136.171 97.5494 136.482 97.8425L135.749 98.6898C135.522 98.4764 135.374 98.4766 135.307 98.4946C135.24 98.5125 135.093 98.5914 134.865 98.9266C134.553 99.3869 134.162 99.778 133.69 99.9044C133.218 100.031 132.827 99.8496 132.515 99.5564C132.288 99.3429 132.14 99.3432 132.073 99.3611C132.006 99.3791 131.858 99.458 131.631 99.7932C131.319 100.253 130.928 100.645 130.456 100.771C129.984 100.897 129.593 100.716 129.281 100.423C129.054 100.21 128.906 100.21 128.839 100.228C128.772 100.246 128.624 100.325 128.397 100.66C128.085 101.12 127.694 101.511 127.222 101.638C126.75 101.764 126.359 101.583 126.047 101.29C125.82 101.076 125.672 101.076 125.605 101.094C125.538 101.112 125.39 101.191 125.163 101.526C124.851 101.987 124.46 102.378 123.988 102.504C123.516 102.631 123.124 102.449 122.813 102.156C122.585 101.943 122.438 101.943 122.371 101.961C122.304 101.979 122.156 102.058 121.929 102.393C121.617 102.853 121.226 103.244 120.754 103.371C120.282 103.497 119.89 103.316 119.578 103.023C119.351 102.809 119.204 102.809 119.137 102.827C119.069 102.845 118.922 102.924 118.695 103.26C118.383 103.72 117.991 104.111 117.52 104.237C117.048 104.364 116.656 104.182 116.344 103.889C116.117 103.676 115.97 103.676 115.902 103.694Z" fill="black"></path> <path fill-rule="evenodd" clip-rule="evenodd" d="M93.2635 109.76C93.1964 109.778 93.0488 109.857 92.8217 110.192C92.5098 110.652 92.1183 111.044 91.6465 111.17C91.1746 111.296 90.7831 111.115 90.4712 110.822L91.2046 109.975C91.4318 110.188 91.5793 110.188 91.6465 110.17C91.7136 110.152 91.8612 110.073 92.0883 109.738C92.4002 109.278 92.7916 108.887 93.2635 108.76C93.7354 108.634 94.1269 108.815 94.4387 109.108C94.6659 109.322 94.8135 109.321 94.8806 109.303C94.9477 109.285 95.0953 109.207 95.3224 108.871C95.6343 108.411 96.0258 108.02 96.4976 107.894C96.9695 107.767 97.361 107.948 97.6729 108.242C97.9 108.455 98.0476 108.455 98.1147 108.437C98.1818 108.419 98.3294 108.34 98.5565 108.005C98.8684 107.544 99.2599 107.153 99.7318 107.027C100.204 106.901 100.595 107.082 100.907 107.375C101.134 107.588 101.282 107.588 101.349 107.57C101.416 107.552 101.564 107.473 101.791 107.138C102.103 106.678 102.494 106.287 102.966 106.16C103.438 106.034 103.829 106.215 104.141 106.508C104.368 106.722 104.516 106.722 104.583 106.704C104.65 106.686 104.798 106.607 105.025 106.272C105.337 105.811 105.728 105.42 106.2 105.294C106.672 105.167 107.063 105.349 107.375 105.642C107.602 105.855 107.75 105.855 107.817 105.837C107.884 105.819 108.032 105.74 108.259 105.405C108.571 104.945 108.962 104.554 109.434 104.427C109.906 104.301 110.298 104.482 110.609 104.775C110.837 104.989 110.984 104.988 111.051 104.97C111.118 104.953 111.266 104.874 111.493 104.538C111.805 104.078 112.196 103.687 112.668 103.561C113.14 103.434 113.532 103.615 113.844 103.909L113.11 104.756C112.883 104.542 112.735 104.543 112.668 104.561C112.601 104.579 112.454 104.658 112.226 104.993C111.915 105.453 111.523 105.844 111.051 105.97C110.579 106.097 110.188 105.916 109.876 105.623C109.649 105.409 109.501 105.409 109.434 105.427C109.367 105.445 109.219 105.524 108.992 105.859C108.68 106.32 108.289 106.711 107.817 106.837C107.345 106.964 106.954 106.782 106.642 106.489C106.415 106.276 106.267 106.276 106.2 106.294C106.133 106.312 105.985 106.391 105.758 106.726C105.446 107.186 105.055 107.577 104.583 107.704C104.111 107.83 103.72 107.649 103.408 107.356C103.181 107.142 103.033 107.142 102.966 107.16C102.899 107.178 102.751 107.257 102.524 107.592C102.212 108.053 101.821 108.444 101.349 108.57C100.877 108.697 100.485 108.515 100.174 108.222C99.9465 108.009 99.7989 108.009 99.7318 108.027C99.6646 108.045 99.5171 108.124 99.2899 108.459C98.9781 108.919 98.5866 109.31 98.1147 109.437C97.6428 109.563 97.2514 109.382 96.9395 109.089C96.7123 108.875 96.5648 108.876 96.4976 108.894C96.4305 108.912 96.2829 108.99 96.0558 109.326C95.7439 109.786 95.3525 110.177 94.8806 110.303C94.4087 110.43 94.0172 110.249 93.7054 109.955C93.4782 109.742 93.3306 109.742 93.2635 109.76Z" fill="black"></path> <path fill-rule="evenodd" clip-rule="evenodd" d="M70.6246 115.826C70.5575 115.844 70.4099 115.923 70.1828 116.258C69.8709 116.719 69.4795 117.11 69.0076 117.236C68.5357 117.363 68.1442 117.181 67.8324 116.888L68.5657 116.041C68.7929 116.254 68.9405 116.254 69.0076 116.236C69.0747 116.218 69.2223 116.139 69.4494 115.804C69.7613 115.344 70.1528 114.953 70.6246 114.826C71.0965 114.7 71.488 114.881 71.7999 115.174C72.027 115.388 72.1746 115.387 72.2417 115.369C72.3088 115.351 72.4564 115.273 72.6836 114.937C72.9954 114.477 73.3869 114.086 73.8588 113.96C74.3307 113.833 74.7221 114.014 75.034 114.308C75.2611 114.521 75.4087 114.521 75.4758 114.503C75.543 114.485 75.6905 114.406 75.9177 114.071C76.2296 113.611 76.621 113.219 77.0929 113.093C77.5648 112.967 77.9562 113.148 78.2681 113.441C78.4953 113.655 78.6428 113.654 78.71 113.636C78.7771 113.618 78.9247 113.539 79.1518 113.204C79.4637 112.744 79.8551 112.353 80.327 112.226C80.7989 112.1 81.1904 112.281 81.5023 112.574C81.7294 112.788 81.877 112.788 81.9441 112.77C82.0112 112.752 82.1588 112.673 82.3859 112.338C82.6978 111.877 83.0893 111.486 83.5612 111.36C84.0331 111.233 84.4245 111.415 84.7364 111.708C84.9635 111.921 85.1111 111.921 85.1782 111.903C85.2454 111.885 85.3929 111.806 85.6201 111.471C85.9319 111.011 86.3234 110.62 86.7953 110.493C87.2672 110.367 87.6586 110.548 87.9705 110.841C88.1977 111.055 88.3452 111.055 88.4124 111.037C88.4795 111.019 88.6271 110.94 88.8542 110.604C89.1661 110.144 89.5575 109.753 90.0294 109.627C90.5013 109.5 90.8928 109.682 91.2046 109.975L90.4713 110.822C90.2441 110.609 90.0965 110.609 90.0294 110.627C89.9623 110.645 89.8147 110.724 89.5876 111.059C89.2757 111.519 88.8842 111.91 88.4124 112.037C87.9405 112.163 87.549 111.982 87.2371 111.689C87.01 111.475 86.8624 111.475 86.7953 111.493C86.7282 111.511 86.5806 111.59 86.3534 111.925C86.0416 112.386 85.6501 112.777 85.1782 112.903C84.7063 113.03 84.3149 112.848 84.003 112.555C83.7759 112.342 83.6283 112.342 83.5612 112.36C83.494 112.378 83.3465 112.457 83.1193 112.792C82.8074 113.252 82.416 113.643 81.9441 113.77C81.4722 113.896 81.0808 113.715 80.7689 113.422C80.5417 113.208 80.3942 113.208 80.327 113.226C80.2599 113.244 80.1123 113.323 79.8852 113.659C79.5733 114.119 79.1819 114.51 78.71 114.636C78.2381 114.763 77.8466 114.581 77.5347 114.288C77.3076 114.075 77.16 114.075 77.0929 114.093C77.0258 114.111 76.8782 114.19 76.6511 114.525C76.3392 114.985 75.9477 115.376 75.4758 115.503C75.0039 115.629 74.6125 115.448 74.3006 115.155C74.0735 114.941 73.9259 114.942 73.8588 114.96C73.7917 114.978 73.6441 115.056 73.4169 115.392C73.1051 115.852 72.7136 116.243 72.2417 116.369C71.7698 116.496 71.3784 116.315 71.0665 116.021C70.8393 115.808 70.6918 115.808 70.6246 115.826Z" fill="black"></path> <path fill-rule="evenodd" clip-rule="evenodd" d="M85.6499 95.692C86.9398 95.3464 87.9854 93.9837 87.9854 92.6482C87.9854 91.3128 86.9398 90.5105 85.6499 90.8561C84.36 91.2017 83.3143 92.5645 83.3143 93.8999C83.3143 95.2353 84.36 96.0377 85.6499 95.692ZM85.6499 96.692C87.4732 96.2035 88.9514 94.2771 88.9514 92.3894C88.9514 90.5017 87.4732 89.3675 85.6499 89.8561C83.8265 90.3447 82.3484 92.271 82.3484 94.1587C82.3484 96.0464 83.8265 97.1806 85.6499 96.692Z" fill="black"></path> <path fill-rule="evenodd" clip-rule="evenodd" d="M118.654 87.6962L119.451 88.192C120.236 88.6797 121.506 90.2458 121.506 92.5483C121.506 94.8594 120.228 96.9415 119.423 97.7705L118.654 98.5631V87.6962ZM119.62 89.9158V96.0463C120.096 95.2092 120.54 94.0486 120.54 92.8072C120.54 91.5698 120.099 90.5759 119.62 89.9158Z" fill="black"></path> <path fill-rule="evenodd" clip-rule="evenodd" d="M110.489 100.238L125.801 96.1355L121.4 103.01L120.646 102.587L123.791 97.674L112.692 100.648L115.421 102.984L114.71 103.852L110.489 100.238Z" fill="black"></path> <path fill-rule="evenodd" clip-rule="evenodd" d="M122.91 99.8633L113.477 102.391V101.391L122.91 98.8633V99.8633Z" fill="black"></path> <path fill-rule="evenodd" clip-rule="evenodd" d="M94.3392 209.379C91.77 209.971 89.555 212.163 88.7637 214.632L87.8557 214.534C88.7939 211.606 91.3974 209.056 94.3742 208.37C97.1921 207.721 99.5519 208.925 100.431 211.207L99.5231 211.79C98.7799 209.862 96.7702 208.819 94.3392 209.379Z" fill="black"></path> <path fill-rule="evenodd" clip-rule="evenodd" d="M115.835 200.422C117.125 200.077 118.171 198.714 118.171 197.379C118.171 196.043 117.125 195.241 115.835 195.586C114.545 195.932 113.5 197.295 113.5 198.63C113.5 199.966 114.545 200.768 115.835 200.422ZM115.835 201.422C117.658 200.934 119.137 199.007 119.137 197.12C119.137 195.232 117.658 194.098 115.835 194.586C114.012 195.075 112.534 197.001 112.534 198.889C112.534 200.777 114.012 201.911 115.835 201.422Z" fill="black"></path> <path fill-rule="evenodd" clip-rule="evenodd" d="M84.4768 216.011C84.4097 216.029 84.2621 216.108 84.035 216.443C83.7231 216.903 83.3317 217.294 82.8598 217.421C82.3879 217.547 81.9964 217.366 81.6845 217.073L82.4179 216.225C82.6451 216.439 82.7926 216.439 82.8598 216.421C82.9269 216.403 83.0745 216.324 83.3016 215.989C83.6135 215.528 84.0049 215.137 84.4768 215.011C84.9487 214.884 85.3402 215.066 85.6521 215.359C85.8792 215.572 86.0268 215.572 86.0939 215.554C86.161 215.536 86.3086 215.457 86.5357 215.122C86.8476 214.662 87.2391 214.271 87.711 214.144C88.1829 214.018 88.5743 214.199 88.8862 214.492C89.1133 214.706 89.2609 214.706 89.328 214.688C89.3952 214.67 89.5427 214.591 89.7699 214.255C90.0818 213.795 90.4732 213.404 90.9451 213.278C91.417 213.151 91.8084 213.333 92.1203 213.626C92.3475 213.839 92.495 213.839 92.5622 213.821C92.6293 213.803 92.7769 213.724 93.004 213.389C93.3159 212.929 93.7073 212.538 94.1792 212.411C94.6511 212.285 95.0426 212.466 95.3544 212.759C95.5816 212.973 95.7292 212.972 95.7963 212.954C95.8634 212.936 96.011 212.858 96.2381 212.522C96.55 212.062 96.9415 211.671 97.4133 211.545C97.8852 211.418 98.2767 211.599 98.5886 211.893C98.8157 212.106 98.9633 212.106 99.0304 212.088C99.0975 212.07 99.2451 211.991 99.4723 211.656C99.7841 211.195 100.176 210.804 100.647 210.678C101.119 210.552 101.511 210.733 101.823 211.026C102.05 211.239 102.197 211.239 102.265 211.221C102.332 211.203 102.479 211.124 102.706 210.789C103.018 210.329 103.41 209.938 103.882 209.811C104.353 209.685 104.745 209.866 105.057 210.159L104.323 211.007C104.096 210.793 103.949 210.793 103.882 210.811C103.814 210.829 103.667 210.908 103.44 211.243C103.128 211.704 102.736 212.095 102.265 212.221C101.793 212.348 101.401 212.166 101.089 211.873C100.862 211.66 100.715 211.66 100.647 211.678C100.58 211.696 100.433 211.775 100.206 212.11C99.8938 212.57 99.5023 212.961 99.0304 213.088C98.5585 213.214 98.1671 213.033 97.8552 212.74C97.628 212.526 97.4805 212.527 97.4133 212.545C97.3462 212.563 97.1986 212.641 96.9715 212.977C96.6596 213.437 96.2682 213.828 95.7963 213.954C95.3244 214.081 94.9329 213.9 94.6211 213.606C94.3939 213.393 94.2463 213.393 94.1792 213.411C94.1121 213.429 93.9645 213.508 93.7374 213.843C93.4255 214.303 93.0341 214.695 92.5622 214.821C92.0903 214.947 91.6988 214.766 91.3869 214.473C91.1598 214.26 91.0122 214.26 90.9451 214.278C90.878 214.296 90.7304 214.375 90.5033 214.71C90.1914 215.17 89.7999 215.561 89.328 215.688C88.8561 215.814 88.4647 215.633 88.1528 215.34C87.9257 215.126 87.7781 215.126 87.711 215.144C87.6438 215.162 87.4963 215.241 87.2691 215.576C86.9572 216.037 86.5658 216.428 86.0939 216.554C85.622 216.681 85.2306 216.499 84.9187 216.206C84.6915 215.993 84.544 215.993 84.4768 216.011Z" fill="black"></path> <path fill-rule="evenodd" clip-rule="evenodd" d="M97.98 215.995C97.9129 216.013 97.7653 216.092 97.5381 216.427C97.2263 216.888 96.8348 217.279 96.3629 217.405C95.891 217.532 95.4996 217.35 95.1877 217.057L95.9211 216.21C96.1482 216.423 96.2958 216.423 96.3629 216.405C96.43 216.387 96.5776 216.308 96.8048 215.973C97.1166 215.513 97.5081 215.122 97.98 214.995C98.4519 214.869 98.8433 215.05 99.1552 215.343C99.3823 215.557 99.5299 215.557 99.597 215.539C99.6642 215.521 99.8117 215.442 100.039 215.107C100.351 214.646 100.742 214.255 101.214 214.129C101.686 214.002 102.077 214.184 102.389 214.477C102.616 214.69 102.764 214.69 102.831 214.672C102.898 214.654 103.046 214.575 103.273 214.24C103.585 213.78 103.976 213.389 104.448 213.262C104.92 213.136 105.312 213.317 105.623 213.61C105.851 213.824 105.998 213.823 106.065 213.805C106.132 213.787 106.28 213.709 106.507 213.373C106.819 212.913 107.21 212.522 107.682 212.396C108.154 212.269 108.546 212.45 108.858 212.744C109.085 212.957 109.232 212.957 109.299 212.939C109.367 212.921 109.514 212.842 109.741 212.507C110.053 212.047 110.445 211.655 110.916 211.529C111.388 211.403 111.78 211.584 112.092 211.877C112.319 212.09 112.466 212.09 112.534 212.072C112.601 212.054 112.748 211.975 112.975 211.64C113.287 211.18 113.679 210.789 114.151 210.662C114.623 210.536 115.014 210.717 115.326 211.01C115.553 211.224 115.701 211.224 115.768 211.206C115.835 211.188 115.982 211.109 116.21 210.774C116.521 210.313 116.913 209.922 117.385 209.796C117.857 209.669 118.248 209.851 118.56 210.144L117.827 210.991C117.599 210.778 117.452 210.778 117.385 210.796C117.318 210.814 117.17 210.893 116.943 211.228C116.631 211.688 116.24 212.079 115.768 212.206C115.296 212.332 114.904 212.151 114.592 211.858C114.365 211.644 114.218 211.644 114.151 211.662C114.083 211.68 113.936 211.759 113.709 212.095C113.397 212.555 113.005 212.946 112.534 213.072C112.062 213.199 111.67 213.017 111.358 212.724C111.131 212.511 110.984 212.511 110.916 212.529C110.849 212.547 110.702 212.626 110.475 212.961C110.163 213.421 109.771 213.812 109.299 213.939C108.828 214.065 108.436 213.884 108.124 213.591C107.897 213.377 107.749 213.378 107.682 213.396C107.615 213.414 107.468 213.492 107.241 213.828C106.929 214.288 106.537 214.679 106.065 214.805C105.593 214.932 105.202 214.751 104.89 214.457C104.663 214.244 104.515 214.244 104.448 214.262C104.381 214.28 104.234 214.359 104.006 214.694C103.695 215.155 103.303 215.546 102.831 215.672C102.359 215.798 101.968 215.617 101.656 215.324C101.429 215.111 101.281 215.111 101.214 215.129C101.147 215.147 100.999 215.226 100.772 215.561C100.46 216.021 100.069 216.412 99.597 216.539C99.1251 216.665 98.7337 216.484 98.4218 216.191C98.1947 215.977 98.0471 215.977 97.98 215.995Z" fill="black"></path> <path fill-rule="evenodd" clip-rule="evenodd" d="M153.882 59.5842L47.3357 88.1331V352.009L153.882 323.46V59.5842ZM46.3698 87.392V353.267L154.848 324.201V58.3254L46.3698 87.392Z" fill="black"></path> <path fill-rule="evenodd" clip-rule="evenodd" d="M106.586 38.4035L154.542 58.6385L154.153 59.5598L106.502 39.4536L3.11774 64.8089V329.645L47.0816 352.363L46.6226 353.251L2.11774 330.254V64.0245L106.586 38.4035Z" fill="black"></path> <path fill-rule="evenodd" clip-rule="evenodd" d="M322.746 135.469L305.976 130.975V129.975L322.746 134.469V135.469Z" fill="black"></path> <path fill-rule="evenodd" clip-rule="evenodd" d="M336.911 144.264L305.976 135.975V134.975L336.911 143.264V144.264Z" fill="black"></path> <path fill-rule="evenodd" clip-rule="evenodd" d="M336.911 149.264L305.976 140.975V139.975L336.911 148.264V149.264Z" fill="black"></path> <path fill-rule="evenodd" clip-rule="evenodd" d="M336.911 154.264L305.976 145.975V144.975L336.911 153.264V154.264Z" fill="black"></path> <path fill-rule="evenodd" clip-rule="evenodd" d="M290.085 284.717L253.816 274.999V273.999L290.085 283.717V284.717Z" fill="black"></path> <path fill-rule="evenodd" clip-rule="evenodd" d="M290.085 294.717L253.816 284.999V283.999L290.085 293.717V294.717Z" fill="black"></path> <path fill-rule="evenodd" clip-rule="evenodd" d="M290.085 289.717L253.816 279.999V278.999L290.085 288.717V289.717Z" fill="black"></path> <path fill-rule="evenodd" clip-rule="evenodd" d="M290.085 299.717L253.816 289.999V288.999L290.085 298.717V299.717Z" fill="black"></path> <path fill-rule="evenodd" clip-rule="evenodd" d="M290.085 304.717L253.816 294.999V293.999L290.085 303.717V304.717Z" fill="black"></path> <path fill-rule="evenodd" clip-rule="evenodd" d="M332.585 296.105L296.317 286.387V285.387L332.585 295.105V296.105Z" fill="black"></path> <path fill-rule="evenodd" clip-rule="evenodd" d="M332.585 306.105L296.317 296.387V295.387L332.585 305.105V306.105Z" fill="black"></path> <path fill-rule="evenodd" clip-rule="evenodd" d="M332.585 301.105L296.317 291.387V290.387L332.585 300.105V301.105Z" fill="black"></path> <path fill-rule="evenodd" clip-rule="evenodd" d="M332.585 311.105L296.317 301.387V300.387L332.585 310.105V311.105Z" fill="black"></path> <path fill-rule="evenodd" clip-rule="evenodd" d="M332.585 316.105L296.317 306.387V305.387L332.585 315.105V316.105Z" fill="black"></path> <path fill-rule="evenodd" clip-rule="evenodd" d="M353.79 125.287L232.083 92.6756V91.6756L353.79 124.287V125.287ZM353.79 175.287L232.083 142.676V141.676L353.79 174.287V175.287ZM353.79 222.287L232.083 189.676V188.676L353.79 221.287V222.287ZM353.79 288.787L232.083 256.176V255.176L353.79 287.787V288.787ZM353.79 334.287L232.083 301.676V300.676L353.79 333.287V334.287Z" fill="black"></path> <path fill-rule="evenodd" clip-rule="evenodd" d="M331.09 229.705L254.782 209.258V248.258L331.09 268.705V229.705ZM253.816 207.999V248.999L332.056 269.963V228.963L253.816 207.999Z" fill="black"></path> <path fill-rule="evenodd" clip-rule="evenodd" d="M292.726 246.138C296.611 247.179 299.761 244.762 299.761 240.74C299.761 236.718 296.611 232.614 292.726 231.573C288.841 230.532 285.692 232.948 285.692 236.97C285.692 240.993 288.841 245.097 292.726 246.138ZM292.726 247.138C297.145 248.322 300.727 245.573 300.727 240.999C300.727 236.425 297.145 231.757 292.726 230.573C288.308 229.389 284.726 232.137 284.726 236.712C284.726 241.286 288.308 245.954 292.726 247.138Z" fill="black"></path> <path fill-rule="evenodd" clip-rule="evenodd" d="M291.004 234.566L295.442 239.583L291.004 242.222V234.566ZM291.97 236.959V240.346L293.933 239.179L291.97 236.959Z" fill="black"></path> <path fill-rule="evenodd" clip-rule="evenodd" d="M305.01 98.7164L253.816 84.999V83.999L305.01 97.7164V98.7164Z" fill="black"></path> <path fill-rule="evenodd" clip-rule="evenodd" d="M315.636 63.5634L270.237 51.3989V50.3989L315.636 62.5634V63.5634Z" fill="black"></path> <path fill-rule="evenodd" clip-rule="evenodd" d="M315.636 68.5634L270.237 56.3989V55.3989L315.636 67.5634V68.5634Z" fill="black"></path> <path fill-rule="evenodd" clip-rule="evenodd" d="M332.056 95.9634L253.816 74.999V75.999L332.056 96.9634V95.9634Z" fill="black"></path> <path fill-rule="evenodd" clip-rule="evenodd" d="M332.056 100.963L253.816 79.999V80.999L332.056 101.963V100.963Z" fill="black"></path> <path fill-rule="evenodd" clip-rule="evenodd" d="M332.056 90.9634L253.816 69.999V70.999L332.056 91.9634V90.9634Z" fill="black"></path> <path fill-rule="evenodd" clip-rule="evenodd" d="M332.056 85.9633L253.816 64.999V65.999L332.056 86.9633V85.9633Z" fill="black"></path> <path fill-rule="evenodd" clip-rule="evenodd" d="M305.01 195.716L253.816 181.999V180.999L305.01 194.716V195.716Z" fill="black"></path> <path fill-rule="evenodd" clip-rule="evenodd" d="M332.056 191.963L253.816 170.999V171.999L332.056 192.963V191.963Z" fill="black"></path> <path fill-rule="evenodd" clip-rule="evenodd" d="M332.056 196.963L253.816 175.999V176.999L332.056 197.963V196.963Z" fill="black"></path> <path fill-rule="evenodd" clip-rule="evenodd" d="M332.056 186.963L253.816 165.999V166.999L332.056 187.963V186.963Z" fill="black"></path> <path fill-rule="evenodd" clip-rule="evenodd" d="M332.056 181.963L253.816 160.999V161.999L332.056 182.963V181.963Z" fill="black"></path> <path fill-rule="evenodd" clip-rule="evenodd" d="M267.226 350.597C267.124 350.569 266.941 350.581 266.679 350.827C266.332 351.154 265.905 351.347 265.398 351.211C264.891 351.075 264.464 350.653 264.117 350.141L264.85 349.687C265.113 350.074 265.295 350.183 265.398 350.211C265.5 350.238 265.683 350.227 265.945 349.98C266.293 349.654 266.719 349.461 267.226 349.597C267.734 349.732 268.16 350.154 268.508 350.667C268.77 351.054 268.953 351.163 269.055 351.191C269.158 351.218 269.34 351.207 269.603 350.96C269.95 350.634 270.377 350.441 270.884 350.577C271.391 350.712 271.818 351.134 272.165 351.647C272.427 352.034 272.61 352.143 272.712 352.171C272.815 352.198 272.998 352.187 273.26 351.94C273.607 351.614 274.034 351.421 274.541 351.557C275.048 351.692 275.475 352.114 275.822 352.627C276.085 353.014 276.267 353.123 276.37 353.151C276.472 353.178 276.655 353.167 276.917 352.92C277.265 352.594 277.691 352.401 278.198 352.537C278.706 352.672 279.132 353.094 279.479 353.607C279.742 353.994 279.925 354.103 280.027 354.131C280.129 354.158 280.312 354.147 280.575 353.9C280.922 353.574 281.349 353.381 281.856 353.516C282.363 353.652 282.79 354.074 283.137 354.587C283.399 354.974 283.582 355.083 283.684 355.111C283.787 355.138 283.97 355.127 284.232 354.88C284.579 354.554 285.006 354.361 285.513 354.496C286.02 354.632 286.447 355.054 286.794 355.566C287.057 355.954 287.239 356.063 287.342 356.091C287.444 356.118 287.627 356.107 287.889 355.86C288.237 355.534 288.663 355.341 289.17 355.476C289.678 355.612 290.104 356.034 290.451 356.546L289.718 357.001C289.456 356.613 289.273 356.504 289.17 356.476C289.068 356.449 288.885 356.461 288.623 356.707C288.276 357.034 287.849 357.227 287.342 357.091C286.835 356.955 286.408 356.533 286.061 356.021C285.798 355.634 285.615 355.524 285.513 355.496C285.411 355.469 285.228 355.481 284.965 355.727C284.618 356.054 284.192 356.247 283.684 356.111C283.177 355.975 282.751 355.553 282.403 355.041C282.141 354.654 281.958 354.544 281.856 354.516C281.753 354.489 281.571 354.501 281.308 354.747C280.961 355.074 280.534 355.267 280.027 355.131C279.52 354.995 279.093 354.573 278.746 354.061C278.484 353.674 278.301 353.564 278.198 353.537C278.096 353.509 277.913 353.521 277.651 353.767C277.304 354.094 276.877 354.287 276.37 354.151C275.863 354.015 275.436 353.593 275.089 353.081C274.826 352.694 274.644 352.584 274.541 352.557C274.439 352.529 274.256 352.541 273.993 352.787C273.646 353.114 273.22 353.307 272.712 353.171C272.205 353.035 271.779 352.613 271.431 352.101C271.169 351.714 270.986 351.604 270.884 351.577C270.781 351.549 270.599 351.561 270.336 351.807C269.989 352.134 269.562 352.327 269.055 352.191C268.548 352.055 268.121 351.633 267.774 351.121C267.512 350.734 267.329 350.624 267.226 350.597Z" fill="black"></path> <path fill-rule="evenodd" clip-rule="evenodd" d="M307.762 355.936C307.659 355.909 307.477 355.92 307.214 356.167C306.867 356.493 306.44 356.686 305.933 356.551C305.426 356.415 304.999 355.993 304.652 355.481L305.385 355.026C305.648 355.414 305.831 355.523 305.933 355.551C306.035 355.578 306.218 355.566 306.481 355.32C306.828 354.993 307.255 354.8 307.762 354.936C308.269 355.072 308.696 355.494 309.043 356.006C309.305 356.394 309.488 356.503 309.59 356.531C309.693 356.558 309.876 356.546 310.138 356.3C310.485 355.973 310.912 355.78 311.419 355.916C311.926 356.052 312.353 356.474 312.7 356.986C312.962 357.373 313.145 357.483 313.248 357.511C313.35 357.538 313.533 357.526 313.795 357.28C314.143 356.953 314.569 356.76 315.076 356.896C315.584 357.032 316.01 357.454 316.357 357.966C316.62 358.353 316.803 358.463 316.905 358.491C317.007 358.518 317.19 358.506 317.453 358.26C317.8 357.933 318.227 357.74 318.734 357.876C319.241 358.012 319.668 358.434 320.015 358.946C320.277 359.333 320.46 359.443 320.562 359.47C320.665 359.498 320.848 359.486 321.11 359.24C321.457 358.913 321.884 358.72 322.391 358.856C322.898 358.992 323.325 359.414 323.672 359.926C323.934 360.313 324.117 360.423 324.22 360.45C324.322 360.478 324.505 360.466 324.767 360.22C325.114 359.893 325.541 359.7 326.048 359.836C326.556 359.972 326.982 360.394 327.329 360.906C327.592 361.293 327.775 361.403 327.877 361.43C327.979 361.458 328.162 361.446 328.425 361.2C328.772 360.873 329.199 360.68 329.706 360.816C330.213 360.952 330.64 361.374 330.987 361.886L330.253 362.34C329.991 361.953 329.808 361.844 329.706 361.816C329.603 361.789 329.42 361.8 329.158 362.047C328.811 362.373 328.384 362.566 327.877 362.43C327.37 362.295 326.943 361.873 326.596 361.36C326.334 360.973 326.151 360.864 326.048 360.836C325.946 360.809 325.763 360.82 325.501 361.067C325.154 361.393 324.727 361.586 324.22 361.45C323.713 361.315 323.286 360.893 322.939 360.38C322.676 359.993 322.493 359.884 322.391 359.856C322.289 359.829 322.106 359.84 321.843 360.087C321.496 360.413 321.07 360.606 320.562 360.47C320.055 360.335 319.628 359.913 319.281 359.4C319.019 359.013 318.836 358.904 318.734 358.876C318.631 358.849 318.448 358.86 318.186 359.107C317.839 359.433 317.412 359.626 316.905 359.491C316.398 359.355 315.971 358.933 315.624 358.42C315.362 358.033 315.179 357.924 315.076 357.896C314.974 357.869 314.791 357.88 314.529 358.127C314.182 358.453 313.755 358.646 313.248 358.511C312.741 358.375 312.314 357.953 311.967 357.441C311.704 357.053 311.521 356.944 311.419 356.916C311.317 356.889 311.134 356.9 310.871 357.147C310.524 357.473 310.098 357.666 309.59 357.531C309.083 357.395 308.657 356.973 308.309 356.461C308.047 356.073 307.864 355.964 307.762 355.936Z" fill="black"></path> <path fill-rule="evenodd" clip-rule="evenodd" d="M282.161 349.076C282.058 349.049 281.875 349.061 281.613 349.307C281.266 349.634 280.839 349.827 280.332 349.691C279.825 349.555 279.398 349.133 279.051 348.621L279.784 348.166C280.047 348.554 280.229 348.663 280.332 348.691C280.434 348.718 280.617 348.707 280.879 348.46C281.227 348.134 281.653 347.941 282.161 348.076C282.668 348.212 283.094 348.634 283.442 349.146C283.704 349.534 283.887 349.643 283.989 349.671C284.092 349.698 284.274 349.687 284.537 349.44C284.884 349.114 285.311 348.92 285.818 349.056C286.325 349.192 286.752 349.614 287.099 350.126C287.361 350.514 287.544 350.623 287.646 350.651C287.749 350.678 287.932 350.667 288.194 350.42C288.541 350.094 288.968 349.9 289.475 350.036C289.982 350.172 290.409 350.594 290.756 351.106C291.019 351.494 291.201 351.603 291.304 351.631C291.406 351.658 291.589 351.646 291.851 351.4C292.199 351.074 292.625 350.88 293.132 351.016C293.64 351.152 294.066 351.574 294.413 352.086C294.676 352.474 294.859 352.583 294.961 352.611C295.064 352.638 295.246 352.626 295.509 352.38C295.856 352.054 296.283 351.86 296.79 351.996C297.297 352.132 297.724 352.554 298.071 353.066C298.333 353.454 298.516 353.563 298.618 353.591C298.721 353.618 298.904 353.606 299.166 353.36C299.513 353.034 299.94 352.84 300.447 352.976C300.954 353.112 301.381 353.534 301.728 354.046C301.991 354.434 302.173 354.543 302.276 354.571C302.378 354.598 302.561 354.586 302.823 354.34C303.171 354.014 303.597 353.82 304.104 353.956C304.612 354.092 305.038 354.514 305.385 355.026L304.652 355.481C304.39 355.093 304.207 354.984 304.104 354.956C304.002 354.929 303.819 354.94 303.557 355.187C303.21 355.513 302.783 355.707 302.276 355.571C301.769 355.435 301.342 355.013 300.995 354.501C300.732 354.113 300.549 354.004 300.447 353.976C300.345 353.949 300.162 353.96 299.899 354.207C299.552 354.533 299.126 354.727 298.618 354.591C298.111 354.455 297.685 354.033 297.337 353.521C297.075 353.133 296.892 353.024 296.79 352.996C296.687 352.969 296.505 352.981 296.242 353.227C295.895 353.553 295.468 353.747 294.961 353.611C294.454 353.475 294.027 353.053 293.68 352.541C293.418 352.153 293.235 352.044 293.132 352.016C293.03 351.989 292.847 352.001 292.585 352.247C292.238 352.573 291.811 352.767 291.304 352.631C290.797 352.495 290.37 352.073 290.023 351.561C289.76 351.173 289.578 351.064 289.475 351.036C289.373 351.009 289.19 351.021 288.928 351.267C288.58 351.593 288.154 351.787 287.646 351.651C287.139 351.515 286.713 351.093 286.365 350.581C286.103 350.193 285.92 350.084 285.818 350.056C285.715 350.029 285.533 350.041 285.27 350.287C284.923 350.613 284.496 350.807 283.989 350.671C283.482 350.535 283.055 350.113 282.708 349.601C282.446 349.213 282.263 349.104 282.161 349.076Z" fill="black"></path> <path fill-rule="evenodd" clip-rule="evenodd" d="M256.559 342.217C256.457 342.189 256.274 342.201 256.012 342.447C255.664 342.774 255.238 342.967 254.731 342.831C254.223 342.695 253.797 342.273 253.45 341.761L254.183 341.307C254.445 341.694 254.628 341.803 254.731 341.831C254.833 341.858 255.016 341.847 255.278 341.6C255.625 341.274 256.052 341.081 256.559 341.217C257.066 341.352 257.493 341.774 257.84 342.287C258.103 342.674 258.286 342.783 258.388 342.811C258.49 342.838 258.673 342.827 258.936 342.58C259.283 342.254 259.709 342.061 260.217 342.197C260.724 342.332 261.15 342.754 261.498 343.267C261.76 343.654 261.943 343.763 262.045 343.791C262.148 343.818 262.33 343.807 262.593 343.56C262.94 343.234 263.367 343.041 263.874 343.177C264.381 343.312 264.808 343.734 265.155 344.247C265.417 344.634 265.6 344.743 265.703 344.771C265.805 344.798 265.988 344.787 266.25 344.54C266.597 344.214 267.024 344.021 267.531 344.156C268.038 344.292 268.465 344.714 268.812 345.227C269.075 345.614 269.257 345.723 269.36 345.751C269.462 345.778 269.645 345.767 269.908 345.52C270.255 345.194 270.681 345.001 271.189 345.136C271.696 345.272 272.122 345.694 272.47 346.206C272.732 346.594 272.915 346.703 273.017 346.731C273.12 346.758 273.302 346.747 273.565 346.5C273.912 346.174 274.339 345.981 274.846 346.116C275.353 346.252 275.78 346.674 276.127 347.186C276.389 347.574 276.572 347.683 276.675 347.711C276.777 347.738 276.96 347.727 277.222 347.48C277.569 347.154 277.996 346.961 278.503 347.096C279.01 347.232 279.437 347.654 279.784 348.166L279.051 348.621C278.788 348.233 278.606 348.124 278.503 348.096C278.401 348.069 278.218 348.081 277.956 348.327C277.608 348.654 277.182 348.847 276.675 348.711C276.167 348.575 275.741 348.153 275.393 347.641C275.131 347.254 274.948 347.144 274.846 347.116C274.743 347.089 274.561 347.101 274.298 347.347C273.951 347.674 273.524 347.867 273.017 347.731C272.51 347.595 272.083 347.173 271.736 346.661C271.474 346.274 271.291 346.164 271.189 346.136C271.086 346.109 270.903 346.121 270.641 346.367C270.294 346.694 269.867 346.887 269.36 346.751C268.853 346.615 268.426 346.193 268.079 345.681C267.816 345.294 267.634 345.184 267.531 345.156C267.429 345.129 267.246 345.141 266.984 345.387C266.636 345.714 266.21 345.907 265.703 345.771C265.195 345.635 264.769 345.213 264.422 344.701C264.159 344.314 263.976 344.204 263.874 344.177C263.772 344.149 263.589 344.161 263.326 344.407C262.979 344.734 262.552 344.927 262.045 344.791C261.538 344.655 261.111 344.233 260.764 343.721C260.502 343.334 260.319 343.224 260.217 343.197C260.114 343.169 259.931 343.181 259.669 343.427C259.322 343.754 258.895 343.947 258.388 343.811C257.881 343.675 257.454 343.253 257.107 342.741C256.844 342.354 256.662 342.244 256.559 342.217Z" fill="black"></path> <path fill-rule="evenodd" clip-rule="evenodd" d="M275.684 332.589C277.212 332.998 278.452 332.048 278.452 330.465C278.452 328.883 277.212 327.268 275.684 326.858C274.156 326.449 272.916 327.4 272.916 328.982C272.916 330.564 274.156 332.179 275.684 332.589ZM275.684 333.589C277.746 334.141 279.418 332.859 279.418 330.724C279.418 328.589 277.746 326.411 275.684 325.858C273.622 325.306 271.95 326.589 271.95 328.723C271.95 330.858 273.622 333.036 275.684 333.589Z" fill="black"></path> <path fill-rule="evenodd" clip-rule="evenodd" d="M310.936 339.737L311.734 340.66C312.61 341.675 314.035 344.195 314.035 346.777C314.035 349.366 312.602 350.931 311.705 351.374L310.936 351.754V339.737ZM311.902 342.436V349.792C312.489 349.137 313.07 348.036 313.07 346.518C313.07 345.005 312.493 343.502 311.902 342.436Z" fill="black"></path> <path fill-rule="evenodd" clip-rule="evenodd" d="M301.784 348.917L318.824 353.483L313.93 358.506L313.175 357.679L316.815 353.945L303.987 350.507L307.171 354.939L306.46 355.426L301.784 348.917Z" fill="black"></path> <path fill-rule="evenodd" clip-rule="evenodd" d="M315.686 355.851L305.019 352.993V351.993L315.686 354.851V355.851Z" fill="black"></path> <path fill-rule="evenodd" clip-rule="evenodd" d="M259.021 123.844C256.089 122.948 253.559 124.093 252.654 126.431L251.746 125.846C252.798 123.129 255.716 121.833 259.056 122.854C262.217 123.819 264.863 126.587 265.849 129.673L264.941 129.77C264.091 127.111 261.795 124.691 259.021 123.844Z" fill="black"></path> <path fill-rule="evenodd" clip-rule="evenodd" d="M275.902 123.647C277.431 124.057 278.67 123.106 278.67 121.524C278.67 119.941 277.431 118.326 275.902 117.917C274.374 117.507 273.135 118.458 273.135 120.041C273.135 121.623 274.374 123.238 275.902 123.647ZM275.902 124.647C277.964 125.2 279.636 123.917 279.636 121.783C279.636 119.648 277.964 117.469 275.902 116.917C273.84 116.364 272.169 117.647 272.169 119.782C272.169 121.916 273.84 124.095 275.902 124.647Z" fill="black"></path> <path fill-rule="evenodd" clip-rule="evenodd" d="M247.866 125.365C247.764 125.338 247.581 125.35 247.318 125.596C246.971 125.923 246.544 126.116 246.037 125.98C245.53 125.844 245.103 125.422 244.756 124.91L245.49 124.456C245.752 124.843 245.935 124.952 246.037 124.98C246.14 125.007 246.322 124.996 246.585 124.749C246.932 124.423 247.359 124.23 247.866 124.365C248.373 124.501 248.8 124.923 249.147 125.435C249.409 125.823 249.592 125.932 249.695 125.96C249.797 125.987 249.98 125.976 250.242 125.729C250.589 125.403 251.016 125.21 251.523 125.345C252.03 125.481 252.457 125.903 252.804 126.415C253.067 126.803 253.25 126.912 253.352 126.94C253.454 126.967 253.637 126.956 253.9 126.709C254.247 126.383 254.673 126.19 255.181 126.325C255.688 126.461 256.114 126.883 256.462 127.395C256.724 127.783 256.907 127.892 257.009 127.92C257.112 127.947 257.294 127.936 257.557 127.689C257.904 127.363 258.331 127.17 258.838 127.305C259.345 127.441 259.772 127.863 260.119 128.375C260.381 128.763 260.564 128.872 260.667 128.9C260.769 128.927 260.952 128.916 261.214 128.669C261.561 128.343 261.988 128.149 262.495 128.285C263.002 128.421 263.429 128.843 263.776 129.355C264.039 129.743 264.221 129.852 264.324 129.88C264.426 129.907 264.609 129.896 264.871 129.649C265.219 129.323 265.645 129.129 266.153 129.265C266.66 129.401 267.086 129.823 267.434 130.335C267.696 130.723 267.879 130.832 267.981 130.86C268.084 130.887 268.266 130.875 268.529 130.629C268.876 130.303 269.303 130.109 269.81 130.245C270.317 130.381 270.744 130.803 271.091 131.315L270.357 131.77C270.095 131.382 269.912 131.273 269.81 131.245C269.707 131.218 269.525 131.23 269.262 131.476C268.915 131.802 268.488 131.996 267.981 131.86C267.474 131.724 267.047 131.302 266.7 130.79C266.438 130.402 266.255 130.293 266.153 130.265C266.05 130.238 265.867 130.25 265.605 130.496C265.258 130.822 264.831 131.016 264.324 130.88C263.817 130.744 263.39 130.322 263.043 129.81C262.78 129.422 262.598 129.313 262.495 129.285C262.393 129.258 262.21 129.27 261.948 129.516C261.6 129.842 261.174 130.036 260.667 129.9C260.159 129.764 259.733 129.342 259.386 128.83C259.123 128.442 258.94 128.333 258.838 128.305C258.735 128.278 258.553 128.29 258.29 128.536C257.943 128.863 257.516 129.056 257.009 128.92C256.502 128.784 256.075 128.362 255.728 127.85C255.466 127.462 255.283 127.353 255.181 127.325C255.078 127.298 254.895 127.31 254.633 127.556C254.286 127.883 253.859 128.076 253.352 127.94C252.845 127.804 252.418 127.382 252.071 126.87C251.808 126.483 251.626 126.373 251.523 126.345C251.421 126.318 251.238 126.33 250.976 126.576C250.628 126.903 250.202 127.096 249.695 126.96C249.187 126.824 248.761 126.402 248.414 125.89C248.151 125.503 247.968 125.393 247.866 125.365Z" fill="black"></path> <path fill-rule="evenodd" clip-rule="evenodd" d="M257.525 132.493C257.423 132.465 257.24 132.477 256.978 132.724C256.63 133.05 256.204 133.243 255.697 133.107C255.189 132.971 254.763 132.549 254.416 132.037L255.149 131.583C255.411 131.97 255.594 132.08 255.697 132.107C255.799 132.135 255.982 132.123 256.244 131.876C256.591 131.55 257.018 131.357 257.525 131.493C258.032 131.629 258.459 132.05 258.806 132.563C259.069 132.95 259.251 133.06 259.354 133.087C259.456 133.115 259.639 133.103 259.901 132.856C260.249 132.53 260.675 132.337 261.183 132.473C261.69 132.609 262.116 133.03 262.464 133.543C262.726 133.93 262.909 134.04 263.011 134.067C263.114 134.095 263.296 134.083 263.559 133.836C263.906 133.51 264.333 133.317 264.84 133.453C265.347 133.589 265.774 134.01 266.121 134.523C266.383 134.91 266.566 135.02 266.668 135.047C266.771 135.075 266.954 135.063 267.216 134.816C267.563 134.49 267.99 134.297 268.497 134.433C269.004 134.569 269.431 134.99 269.778 135.503C270.041 135.89 270.223 136 270.326 136.027C270.428 136.054 270.611 136.043 270.873 135.796C271.221 135.47 271.647 135.277 272.154 135.413C272.662 135.549 273.088 135.97 273.435 136.483C273.698 136.87 273.881 136.98 273.983 137.007C274.086 137.034 274.268 137.023 274.531 136.776C274.878 136.45 275.305 136.257 275.812 136.393C276.319 136.529 276.746 136.95 277.093 137.463C277.355 137.85 277.538 137.96 277.64 137.987C277.743 138.014 277.926 138.003 278.188 137.756C278.535 137.43 278.962 137.237 279.469 137.373C279.976 137.509 280.403 137.93 280.75 138.443L280.017 138.897C279.754 138.51 279.571 138.4 279.469 138.373C279.367 138.345 279.184 138.357 278.921 138.603C278.574 138.93 278.148 139.123 277.64 138.987C277.133 138.851 276.707 138.429 276.359 137.917C276.097 137.53 275.914 137.42 275.812 137.393C275.709 137.365 275.527 137.377 275.264 137.623C274.917 137.95 274.49 138.143 273.983 138.007C273.476 137.871 273.049 137.449 272.702 136.937C272.44 136.55 272.257 136.44 272.154 136.413C272.052 136.385 271.869 136.397 271.607 136.644C271.26 136.97 270.833 137.163 270.326 137.027C269.819 136.891 269.392 136.469 269.045 135.957C268.782 135.57 268.6 135.46 268.497 135.433C268.395 135.405 268.212 135.417 267.95 135.664C267.602 135.99 267.176 136.183 266.668 136.047C266.161 135.911 265.735 135.489 265.387 134.977C265.125 134.59 264.942 134.48 264.84 134.453C264.737 134.425 264.555 134.437 264.292 134.684C263.945 135.01 263.518 135.203 263.011 135.067C262.504 134.931 262.077 134.509 261.73 133.997C261.468 133.61 261.285 133.5 261.183 133.473C261.08 133.445 260.897 133.457 260.635 133.704C260.288 134.03 259.861 134.223 259.354 134.087C258.847 133.951 258.42 133.529 258.073 133.017C257.81 132.63 257.628 132.52 257.525 132.493Z" fill="black"></path> <path fill-rule="evenodd" clip-rule="evenodd" d="M353.307 59.6573L232.566 27.305V358.305L353.307 390.657V59.6573ZM231.6 26.0461V359.046L354.273 391.916V58.9162L231.6 26.0461Z" fill="black"></path> <path fill-rule="evenodd" clip-rule="evenodd" d="M407.827 32.4917L353.827 59.9917L353.373 59.1006L407.373 31.6006L407.827 32.4917Z" fill="black"></path> <path fill-rule="evenodd" clip-rule="evenodd" d="M291.563 0.518616L408.1 31.6622L408.269 364.91L407.269 364.911L407.1 32.4301L291.637 1.57365L232.009 26.9509L231.617 26.0307L291.563 0.518616Z" fill="black"></path> <path fill-rule="evenodd" clip-rule="evenodd" d="M407.824 98.4933L353.824 125.493L353.376 124.599L407.376 97.5989L407.824 98.4933Z" fill="black"></path> <path fill-rule="evenodd" clip-rule="evenodd" d="M407.824 148.493L353.824 175.493L353.376 174.599L407.376 147.599L407.824 148.493Z" fill="black"></path> <path fill-rule="evenodd" clip-rule="evenodd" d="M407.824 195.493L353.824 222.493L353.376 221.599L407.376 194.599L407.824 195.493Z" fill="black"></path> <path fill-rule="evenodd" clip-rule="evenodd" d="M407.824 261.493L353.824 288.493L353.376 287.599L407.376 260.599L407.824 261.493Z" fill="black"></path> <path fill-rule="evenodd" clip-rule="evenodd" d="M407.824 307.493L353.824 334.493L353.376 333.599L407.376 306.599L407.824 307.493Z" fill="black"></path> <path fill-rule="evenodd" clip-rule="evenodd" d="M408.272 364.919L354.272 391.919L353.825 391.025L407.825 364.025L408.272 364.919Z" fill="black"></path> </g> <defs> <clipPath id="clip0"> <rect width="410" height="391" fill="white" transform="translate(0 0.597916)"></rect> </clipPath> </defs> </svg> 