<?xml version="1.0" encoding="UTF-8"?> <svg xmlns="http://www.w3.org/2000/svg" width="460" height="267" viewBox="0 0 460 267" fill="none"> <rect width="460" height="266" transform="translate(0 0.0979156)" fill="white"></rect> <path fill-rule="evenodd" clip-rule="evenodd" d="M91.1927 96.9389C90.8406 96.9389 90.4053 97.1431 89.8877 97.7471C89.2822 98.4534 88.5944 98.9044 87.8234 98.9044C87.0523 98.9044 86.3645 98.4534 85.7591 97.7471L86.5184 97.0963C87.036 97.7002 87.4713 97.9044 87.8234 97.9044C88.1754 97.9044 88.6107 97.7002 89.1284 97.0963C89.7338 96.3899 90.4216 95.9389 91.1927 95.9389C91.9637 95.9389 92.6515 96.3899 93.2569 97.0963C93.7746 97.7002 94.2099 97.9044 94.562 97.9044C94.914 97.9044 95.3493 97.7002 95.867 97.0963C96.4724 96.3899 97.1602 95.9389 97.9313 95.9389C98.7023 95.9389 99.3901 96.3899 99.9956 97.0963C100.513 97.7002 100.949 97.9044 101.301 97.9044C101.653 97.9044 102.088 97.7002 102.606 97.0963C103.211 96.3899 103.899 95.9389 104.67 95.9389C105.441 95.9389 106.129 96.3899 106.734 97.0963C107.252 97.7002 107.687 97.9044 108.039 97.9044C108.391 97.9044 108.827 97.7002 109.344 97.0963C109.95 96.3899 110.637 95.9389 111.408 95.9389C112.18 95.9389 112.867 96.3899 113.473 97.0963C113.99 97.7002 114.426 97.9044 114.778 97.9044C115.13 97.9044 115.565 97.7002 116.083 97.0963C116.688 96.3899 117.376 95.9389 118.147 95.9389C118.918 95.9389 119.606 96.3899 120.211 97.0963C120.729 97.7002 121.164 97.9044 121.516 97.9044C121.868 97.9044 122.304 97.7002 122.821 97.0963C123.427 96.3899 124.115 95.9389 124.886 95.9389C125.657 95.9389 126.345 96.3899 126.95 97.0963C127.468 97.7002 127.903 97.9044 128.255 97.9044C128.607 97.9044 129.042 97.7002 129.56 97.0963C130.165 96.3899 130.853 95.9389 131.624 95.9389C132.395 95.9389 133.083 96.3899 133.689 97.0963L132.929 97.7471C132.412 97.1431 131.976 96.9389 131.624 96.9389C131.272 96.9389 130.837 97.1431 130.319 97.7471C129.714 98.4534 129.026 98.9044 128.255 98.9044C127.484 98.9044 126.796 98.4534 126.191 97.7471C125.673 97.1431 125.238 96.9389 124.886 96.9389C124.534 96.9389 124.098 97.1431 123.581 97.7471C122.975 98.4534 122.287 98.9044 121.516 98.9044C120.745 98.9044 120.058 98.4534 119.452 97.7471C118.934 97.1431 118.499 96.9389 118.147 96.9389C117.795 96.9389 117.36 97.1431 116.842 97.7471C116.237 98.4534 115.549 98.9044 114.778 98.9044C114.007 98.9044 113.319 98.4534 112.713 97.7471C112.196 97.1431 111.76 96.9389 111.408 96.9389C111.056 96.9389 110.621 97.1431 110.103 97.7471C109.498 98.4534 108.81 98.9044 108.039 98.9044C107.268 98.9044 106.58 98.4534 105.975 97.7471C105.457 97.1431 105.022 96.9389 104.67 96.9389C104.318 96.9389 103.883 97.1431 103.365 97.7471C102.759 98.4534 102.072 98.9044 101.301 98.9044C100.529 98.9044 99.8417 98.4534 99.2363 97.7471C98.7186 97.1431 98.2833 96.9389 97.9313 96.9389C97.5792 96.9389 97.1439 97.1431 96.6263 97.7471C96.0208 98.4534 95.333 98.9044 94.562 98.9044C93.7909 98.9044 93.1031 98.4534 92.4977 97.7471C91.98 97.1431 91.5447 96.9389 91.1927 96.9389Z" fill="black"></path> <path fill-rule="evenodd" clip-rule="evenodd" d="M238.108 117.195H40.4239V116.195H238.108V117.195Z" fill="black"></path> <path fill-rule="evenodd" clip-rule="evenodd" d="M181.864 130.507H97.6657V129.507H181.864V130.507Z" fill="black"></path> <path fill-rule="evenodd" clip-rule="evenodd" d="M181.864 139.493H97.6657V138.493H181.864V139.493Z" fill="black"></path> <path fill-rule="evenodd" clip-rule="evenodd" d="M164.748 190.328L114.782 190.328L114.782 188.828L164.748 188.828L164.748 190.328Z" fill="black"></path> <path fill-rule="evenodd" clip-rule="evenodd" d="M168.549 88.18C168.197 88.18 167.762 88.3841 167.244 88.9881C166.639 89.6944 165.951 90.1454 165.18 90.1454C164.409 90.1454 163.721 89.6944 163.115 88.9881L163.875 88.3373C164.392 88.9412 164.828 89.1454 165.18 89.1454C165.532 89.1454 165.967 88.9412 166.485 88.3373C167.09 87.6309 167.778 87.18 168.549 87.18C169.32 87.18 170.008 87.6309 170.613 88.3373C171.131 88.9412 171.566 89.1454 171.918 89.1454C172.27 89.1454 172.706 88.9412 173.223 88.3373C173.829 87.6309 174.517 87.18 175.288 87.18C176.059 87.18 176.747 87.6309 177.352 88.3373C177.87 88.9412 178.305 89.1454 178.657 89.1454C179.009 89.1454 179.444 88.9412 179.962 88.3373C180.567 87.6309 181.255 87.18 182.026 87.18C182.797 87.18 183.485 87.6309 184.091 88.3373C184.608 88.9412 185.044 89.1454 185.396 89.1454C185.748 89.1454 186.183 88.9412 186.701 88.3373C187.306 87.6309 187.994 87.18 188.765 87.18C189.536 87.18 190.224 87.6309 190.829 88.3373C191.347 88.9412 191.782 89.1454 192.134 89.1454C192.486 89.1454 192.921 88.9412 193.439 88.3373C194.045 87.6309 194.732 87.18 195.503 87.18C196.275 87.18 196.962 87.6309 197.568 88.3373C198.085 88.9412 198.521 89.1454 198.873 89.1454C199.225 89.1454 199.66 88.9412 200.178 88.3373C200.783 87.6309 201.471 87.18 202.242 87.18C203.013 87.18 203.701 87.6309 204.306 88.3373C204.824 88.9412 205.259 89.1454 205.611 89.1454C205.963 89.1454 206.399 88.9412 206.916 88.3373C207.522 87.6309 208.21 87.18 208.981 87.18C209.752 87.18 210.44 87.6309 211.045 88.3373L210.286 88.9881C209.768 88.3841 209.333 88.18 208.981 88.18C208.629 88.18 208.193 88.3841 207.676 88.9881C207.07 89.6944 206.382 90.1454 205.611 90.1454C204.84 90.1454 204.152 89.6944 203.547 88.9881C203.029 88.3841 202.594 88.18 202.242 88.18C201.89 88.18 201.455 88.3841 200.937 88.9881C200.332 89.6944 199.644 90.1454 198.873 90.1454C198.102 90.1454 197.414 89.6944 196.808 88.9881C196.291 88.3841 195.855 88.18 195.503 88.18C195.151 88.18 194.716 88.3841 194.198 88.9881C193.593 89.6944 192.905 90.1454 192.134 90.1454C191.363 90.1454 190.675 89.6944 190.07 88.9881C189.552 88.3841 189.117 88.18 188.765 88.18C188.413 88.18 187.978 88.3841 187.46 88.9881C186.854 89.6944 186.167 90.1454 185.396 90.1454C184.624 90.1454 183.937 89.6944 183.331 88.9881C182.814 88.3841 182.378 88.18 182.026 88.18C181.674 88.18 181.239 88.3841 180.721 88.9881C180.116 89.6944 179.428 90.1454 178.657 90.1454C177.886 90.1454 177.198 89.6944 176.593 88.9881C176.075 88.3841 175.64 88.18 175.288 88.18C174.936 88.18 174.5 88.3841 173.983 88.9881C173.377 89.6944 172.689 90.1454 171.918 90.1454C171.147 90.1454 170.459 89.6944 169.854 88.9881C169.336 88.3841 168.901 88.18 168.549 88.18Z" fill="black"></path> <path fill-rule="evenodd" clip-rule="evenodd" d="M121.379 88.18C121.027 88.18 120.591 88.3841 120.074 88.9881C119.468 89.6944 118.781 90.1454 118.01 90.1454C117.238 90.1454 116.551 89.6944 115.945 88.9881L116.705 88.3373C117.222 88.9412 117.658 89.1454 118.01 89.1454C118.362 89.1454 118.797 88.9412 119.315 88.3373C119.92 87.6309 120.608 87.18 121.379 87.18C122.15 87.18 122.838 87.6309 123.443 88.3373C123.961 88.9412 124.396 89.1454 124.748 89.1454C125.1 89.1454 125.535 88.9412 126.053 88.3373C126.659 87.6309 127.346 87.18 128.117 87.18C128.889 87.18 129.576 87.6309 130.182 88.3373C130.699 88.9412 131.135 89.1454 131.487 89.1454C131.839 89.1454 132.274 88.9412 132.792 88.3373C133.397 87.6309 134.085 87.18 134.856 87.18C135.627 87.18 136.315 87.6309 136.92 88.3373C137.438 88.9412 137.873 89.1454 138.225 89.1454C138.577 89.1454 139.013 88.9412 139.53 88.3373C140.136 87.6309 140.824 87.18 141.595 87.18C142.366 87.18 143.053 87.6309 143.659 88.3373C144.177 88.9412 144.612 89.1454 144.964 89.1454C145.316 89.1454 145.751 88.9412 146.269 88.3373C146.874 87.6309 147.562 87.18 148.333 87.18C149.104 87.18 149.792 87.6309 150.398 88.3373C150.915 88.9412 151.35 89.1454 151.703 89.1454C152.055 89.1454 152.49 88.9412 153.008 88.3373C153.613 87.6309 154.301 87.18 155.072 87.18C155.843 87.18 156.531 87.6309 157.136 88.3373C157.654 88.9412 158.089 89.1454 158.441 89.1454C158.793 89.1454 159.228 88.9412 159.746 88.3373C160.352 87.6309 161.039 87.18 161.81 87.18C162.582 87.18 163.269 87.6309 163.875 88.3373L163.115 88.9881C162.598 88.3841 162.162 88.18 161.81 88.18C161.458 88.18 161.023 88.3841 160.505 88.9881C159.9 89.6944 159.212 90.1454 158.441 90.1454C157.67 90.1454 156.982 89.6944 156.377 88.9881C155.859 88.3841 155.424 88.18 155.072 88.18C154.72 88.18 154.284 88.3841 153.767 88.9881C153.161 89.6944 152.474 90.1454 151.703 90.1454C150.931 90.1454 150.244 89.6944 149.638 88.9881C149.121 88.3841 148.685 88.18 148.333 88.18C147.981 88.18 147.546 88.3841 147.028 88.9881C146.423 89.6944 145.735 90.1454 144.964 90.1454C144.193 90.1454 143.505 89.6944 142.9 88.9881C142.382 88.3841 141.947 88.18 141.595 88.18C141.243 88.18 140.807 88.3841 140.29 88.9881C139.684 89.6944 138.996 90.1454 138.225 90.1454C137.454 90.1454 136.766 89.6944 136.161 88.9881C135.643 88.3841 135.208 88.18 134.856 88.18C134.504 88.18 134.069 88.3841 133.551 88.9881C132.946 89.6944 132.258 90.1454 131.487 90.1454C130.716 90.1454 130.028 89.6944 129.422 88.9881C128.905 88.3841 128.469 88.18 128.117 88.18C127.765 88.18 127.33 88.3841 126.812 88.9881C126.207 89.6944 125.519 90.1454 124.748 90.1454C123.977 90.1454 123.289 89.6944 122.684 88.9881C122.166 88.3841 121.731 88.18 121.379 88.18Z" fill="black"></path> <path fill-rule="evenodd" clip-rule="evenodd" d="M74.2086 88.18C73.8566 88.18 73.4213 88.3841 72.9036 88.9881C72.2982 89.6944 71.6104 90.1454 70.8393 90.1454C70.0682 90.1454 69.3804 89.6944 68.775 88.9881L69.5343 88.3373C70.052 88.9412 70.4873 89.1454 70.8393 89.1454C71.1913 89.1454 71.6266 88.9412 72.1443 88.3373C72.7497 87.6309 73.4375 87.18 74.2086 87.18C74.9797 87.18 75.6675 87.6309 76.2729 88.3373C76.7906 88.9412 77.2259 89.1454 77.5779 89.1454C77.9299 89.1454 78.3652 88.9412 78.8829 88.3373C79.4883 87.6309 80.1761 87.18 80.9472 87.18C81.7183 87.18 82.4061 87.6309 83.0115 88.3373C83.5292 88.9412 83.9645 89.1454 84.3165 89.1454C84.6685 89.1454 85.1038 88.9412 85.6215 88.3373C86.2269 87.6309 86.9147 87.18 87.6858 87.18C88.4569 87.18 89.1447 87.6309 89.7501 88.3373C90.2678 88.9412 90.7031 89.1454 91.0551 89.1454C91.4071 89.1454 91.8424 88.9412 92.3601 88.3373C92.9655 87.6309 93.6533 87.18 94.4244 87.18C95.1955 87.18 95.8833 87.6309 96.4887 88.3373C97.0064 88.9412 97.4417 89.1454 97.7937 89.1454C98.1457 89.1454 98.581 88.9412 99.0987 88.3373C99.7041 87.6309 100.392 87.18 101.163 87.18C101.934 87.18 102.622 87.6309 103.227 88.3373C103.745 88.9412 104.18 89.1454 104.532 89.1454C104.884 89.1454 105.32 88.9412 105.837 88.3373C106.443 87.6309 107.131 87.18 107.902 87.18C108.673 87.18 109.36 87.6309 109.966 88.3373C110.484 88.9412 110.919 89.1454 111.271 89.1454C111.623 89.1454 112.058 88.9412 112.576 88.3373C113.181 87.6309 113.869 87.18 114.64 87.18C115.411 87.18 116.099 87.6309 116.704 88.3373L115.945 88.9881C115.428 88.3841 114.992 88.18 114.64 88.18C114.288 88.18 113.853 88.3841 113.335 88.9881C112.73 89.6944 112.042 90.1454 111.271 90.1454C110.5 90.1454 109.812 89.6944 109.207 88.9881C108.689 88.3841 108.254 88.18 107.902 88.18C107.55 88.18 107.114 88.3841 106.597 88.9881C105.991 89.6944 105.303 90.1454 104.532 90.1454C103.761 90.1454 103.073 89.6944 102.468 88.9881C101.95 88.3841 101.515 88.18 101.163 88.18C100.811 88.18 100.376 88.3841 99.858 88.9881C99.2526 89.6944 98.5648 90.1454 97.7937 90.1454C97.0226 90.1454 96.3348 89.6944 95.7294 88.9881C95.2117 88.3841 94.7764 88.18 94.4244 88.18C94.0724 88.18 93.6371 88.3841 93.1194 88.9881C92.514 89.6944 91.8262 90.1454 91.0551 90.1454C90.284 90.1454 89.5962 89.6944 88.9908 88.9881C88.4731 88.3841 88.0378 88.18 87.6858 88.18C87.3338 88.18 86.8985 88.3841 86.3808 88.9881C85.7754 89.6944 85.0876 90.1454 84.3165 90.1454C83.5454 90.1454 82.8576 89.6944 82.2522 88.9881C81.7345 88.3841 81.2992 88.18 80.9472 88.18C80.5952 88.18 80.1599 88.3841 79.6422 88.9881C79.0368 89.6944 78.349 90.1454 77.5779 90.1454C76.8068 90.1454 76.119 89.6944 75.5136 88.9881C74.9959 88.3841 74.5606 88.18 74.2086 88.18Z" fill="black"></path> <path fill-rule="evenodd" clip-rule="evenodd" d="M83.0544 63.0949C85.6803 63.0949 87.809 60.9661 87.809 58.3402C87.809 55.7143 85.6803 53.5856 83.0544 53.5856C80.4285 53.5856 78.2997 55.7143 78.2997 58.3402C78.2997 60.9661 80.4285 63.0949 83.0544 63.0949ZM83.0544 64.0949C86.2325 64.0949 88.809 61.5184 88.809 58.3402C88.809 55.1621 86.2325 52.5856 83.0544 52.5856C79.8762 52.5856 77.2997 55.1621 77.2997 58.3402C77.2997 61.5184 79.8762 64.0949 83.0544 64.0949Z" fill="black"></path> <path fill-rule="evenodd" clip-rule="evenodd" d="M167.954 62.1833L168.739 62.7284C169.65 63.3603 170.842 64.549 171.809 66.0963C172.777 67.6466 173.541 69.5909 173.541 71.7314C173.541 73.8747 172.775 75.7392 171.8 77.191C171.228 78.0415 170.578 78.7598 169.953 79.3183H186.38H187.569L186.737 80.168L177.579 89.5223L176.864 88.8228L181.342 84.2491H159.459L162.628 87.3867L161.924 88.0973L153.922 80.1735L153.058 79.3183H154.274H155.4H167.954V63.1391V62.1833ZM158.449 83.2491H182.321L185.19 80.3183H168.456H168.453H155.489L158.449 83.2491ZM168.954 64.1875V78.8549C169.605 78.3293 170.337 77.5748 170.97 76.6331C171.862 75.305 172.541 73.6315 172.541 71.7314C172.541 69.8285 171.861 68.0663 170.961 66.6262C170.331 65.6185 169.604 64.7851 168.954 64.1875Z" fill="black"></path> <path fill-rule="evenodd" clip-rule="evenodd" d="M242.961 27.4987H36.8589C34.9259 27.4987 33.3589 29.0657 33.3589 30.9987V158.418C33.3589 160.351 34.9259 161.918 36.8589 161.918H242.961C244.894 161.918 246.461 160.351 246.461 158.418V30.9987C246.461 29.0657 244.894 27.4987 242.961 27.4987ZM36.8589 25.9987C34.0974 25.9987 31.8589 28.2373 31.8589 30.9987V158.418C31.8589 161.179 34.0974 163.418 36.8589 163.418H242.961C245.723 163.418 247.961 161.179 247.961 158.418V30.9987C247.961 28.2373 245.723 25.9987 242.961 25.9987H36.8589Z" fill="black"></path> <path fill-rule="evenodd" clip-rule="evenodd" d="M37.4466 162.879L14.1928 195.444C12.8288 197.354 13.6258 198.903 15.973 198.903H232.482L231.61 200.123H15.1013C11.9257 200.123 10.8474 198.028 12.6928 195.444L35.9466 162.879H37.4466Z" fill="black"></path> <path fill-rule="evenodd" clip-rule="evenodd" d="M237.841 39.8008H40.9181V150.376H237.841V39.8008ZM39.9181 38.8008V151.376H238.841V38.8008H39.9181Z" fill="black"></path> <path fill-rule="evenodd" clip-rule="evenodd" d="M50.3192 174.045H39.9181V172.545H50.3192V174.045Z" fill="black"></path> <path fill-rule="evenodd" clip-rule="evenodd" d="M153.18 174.045H142.779V172.545H153.18V174.045Z" fill="black"></path> <path fill-rule="evenodd" clip-rule="evenodd" d="M75.9285 174.045H65.5275V172.545H75.9285V174.045Z" fill="black"></path> <path fill-rule="evenodd" clip-rule="evenodd" d="M178.789 174.045H168.388V172.545H178.789V174.045Z" fill="black"></path> <path fill-rule="evenodd" clip-rule="evenodd" d="M63.0561 174.045H52.655V172.545H63.0561V174.045Z" fill="black"></path> <path fill-rule="evenodd" clip-rule="evenodd" d="M165.917 174.045H155.516V172.545H165.917V174.045Z" fill="black"></path> <path fill-rule="evenodd" clip-rule="evenodd" d="M88.6654 174.045H78.2644V172.545H88.6654V174.045Z" fill="black"></path> <path fill-rule="evenodd" clip-rule="evenodd" d="M191.526 174.045H181.125V172.545H191.526V174.045Z" fill="black"></path> <path fill-rule="evenodd" clip-rule="evenodd" d="M101.564 174.045H91.1627V172.545H101.564V174.045Z" fill="black"></path> <path fill-rule="evenodd" clip-rule="evenodd" d="M204.424 174.045H194.023V172.545H204.424V174.045Z" fill="black"></path> <path fill-rule="evenodd" clip-rule="evenodd" d="M127.173 174.045H116.772V172.545H127.173V174.045Z" fill="black"></path> <path fill-rule="evenodd" clip-rule="evenodd" d="M230.034 174.045H219.633V172.545H230.034V174.045Z" fill="black"></path> <path fill-rule="evenodd" clip-rule="evenodd" d="M114.301 174.045H103.9V172.545H114.301V174.045Z" fill="black"></path> <path fill-rule="evenodd" clip-rule="evenodd" d="M217.161 174.045H206.76V172.545H217.161V174.045Z" fill="black"></path> <path fill-rule="evenodd" clip-rule="evenodd" d="M139.91 174.045H129.509V172.545H139.91V174.045Z" fill="black"></path> <path fill-rule="evenodd" clip-rule="evenodd" d="M44.8521 180.89H34.4511V179.39H44.8521V180.89Z" fill="black"></path> <path fill-rule="evenodd" clip-rule="evenodd" d="M147.713 180.89H137.312V179.39H147.713V180.89Z" fill="black"></path> <path fill-rule="evenodd" clip-rule="evenodd" d="M70.4615 180.89H60.0604V179.39H70.4615V180.89Z" fill="black"></path> <path fill-rule="evenodd" clip-rule="evenodd" d="M173.322 180.89H162.921V179.39H173.322V180.89Z" fill="black"></path> <path fill-rule="evenodd" clip-rule="evenodd" d="M57.589 180.89H47.188V179.39H57.589V180.89Z" fill="black"></path> <path fill-rule="evenodd" clip-rule="evenodd" d="M160.45 180.89H150.049V179.39H160.45V180.89Z" fill="black"></path> <path fill-rule="evenodd" clip-rule="evenodd" d="M83.1984 180.89H72.7973V179.39H83.1984V180.89Z" fill="black"></path> <path fill-rule="evenodd" clip-rule="evenodd" d="M186.059 180.89H175.658V179.39H186.059V180.89Z" fill="black"></path> <path fill-rule="evenodd" clip-rule="evenodd" d="M96.0967 180.89H85.6956V179.39H96.0967V180.89Z" fill="black"></path> <path fill-rule="evenodd" clip-rule="evenodd" d="M198.957 180.89H188.556V179.39H198.957V180.89Z" fill="black"></path> <path fill-rule="evenodd" clip-rule="evenodd" d="M121.706 180.89H111.305V179.39H121.706V180.89Z" fill="black"></path> <path fill-rule="evenodd" clip-rule="evenodd" d="M224.567 180.89H214.166V179.39H224.567V180.89Z" fill="black"></path> <path fill-rule="evenodd" clip-rule="evenodd" d="M238.108 180.89H227.707V179.39H238.108V180.89Z" fill="black"></path> <path fill-rule="evenodd" clip-rule="evenodd" d="M108.834 180.89H98.4326V179.39H108.834V180.89Z" fill="black"></path> <path fill-rule="evenodd" clip-rule="evenodd" d="M211.694 180.89H201.293V179.39H211.694V180.89Z" fill="black"></path> <path fill-rule="evenodd" clip-rule="evenodd" d="M134.443 180.89H124.042V179.39H134.443V180.89Z" fill="black"></path> <path d="M231.97 119.358C231.97 116.596 234.209 114.358 236.97 114.358H293.895C296.656 114.358 298.895 116.596 298.895 119.358V237.117C298.895 239.878 296.656 242.117 293.895 242.117H236.97C234.209 242.117 231.97 239.878 231.97 237.117V119.358Z" fill="white"></path> <path fill-rule="evenodd" clip-rule="evenodd" d="M293.895 115.858H236.97C235.037 115.858 233.47 117.425 233.47 119.358V237.117C233.47 239.05 235.037 240.617 236.97 240.617H293.895C295.828 240.617 297.395 239.05 297.395 237.117V119.358C297.395 117.425 295.828 115.858 293.895 115.858ZM236.97 114.358C234.209 114.358 231.97 116.596 231.97 119.358V237.117C231.97 239.878 234.209 242.117 236.97 242.117H293.895C296.656 242.117 298.895 239.878 298.895 237.117V119.358C298.895 116.596 296.656 114.358 293.895 114.358H236.97Z" fill="black"></path> <path fill-rule="evenodd" clip-rule="evenodd" d="M251.278 152.497C250.953 152.497 250.587 152.685 250.179 153.161C249.727 153.688 249.235 154 248.7 154C248.166 154 247.673 153.688 247.222 153.161L247.601 152.836C248.009 153.311 248.376 153.5 248.7 153.5C249.025 153.5 249.392 153.311 249.799 152.836C250.251 152.309 250.744 151.997 251.278 151.997C251.812 151.997 252.305 152.309 252.757 152.836C253.164 153.311 253.531 153.5 253.856 153.5C254.18 153.5 254.547 153.311 254.954 152.836C255.406 152.309 255.899 151.997 256.433 151.997C256.967 151.997 257.46 152.309 257.912 152.836C258.319 153.311 258.686 153.5 259.011 153.5C259.335 153.5 259.702 153.311 260.11 152.836C260.561 152.309 261.054 151.997 261.588 151.997C262.123 151.997 262.615 152.309 263.067 152.836C263.474 153.311 263.841 153.5 264.166 153.5C264.491 153.5 264.857 153.311 265.265 152.836C265.716 152.309 266.209 151.997 266.743 151.997C267.278 151.997 267.77 152.309 268.222 152.836C268.63 153.311 268.996 153.5 269.321 153.5C269.646 153.5 270.012 153.311 270.42 152.836C270.871 152.309 271.364 151.997 271.898 151.997C272.433 151.997 272.925 152.309 273.377 152.836C273.785 153.311 274.151 153.5 274.476 153.5C274.801 153.5 275.167 153.311 275.575 152.836C276.026 152.309 276.519 151.997 277.053 151.997C277.588 151.997 278.081 152.309 278.532 152.836C278.94 153.311 279.306 153.5 279.631 153.5C279.956 153.5 280.322 153.311 280.73 152.836C281.182 152.309 281.674 151.997 282.209 151.997C282.743 151.997 283.236 152.309 283.687 152.836L283.308 153.161C282.9 152.685 282.533 152.497 282.209 152.497C281.884 152.497 281.517 152.685 281.11 153.161C280.658 153.688 280.165 154 279.631 154C279.097 154 278.604 153.688 278.152 153.161C277.745 152.685 277.378 152.497 277.053 152.497C276.729 152.497 276.362 152.685 275.955 153.161C275.503 153.688 275.01 154 274.476 154C273.942 154 273.449 153.688 272.997 153.161C272.59 152.685 272.223 152.497 271.898 152.497C271.574 152.497 271.207 152.685 270.799 153.161C270.348 153.688 269.855 154 269.321 154C268.786 154 268.294 153.688 267.842 153.161C267.435 152.685 267.068 152.497 266.743 152.497C266.418 152.497 266.052 152.685 265.644 153.161C265.193 153.688 264.7 154 264.166 154C263.631 154 263.139 153.688 262.687 153.161C262.279 152.685 261.913 152.497 261.588 152.497C261.263 152.497 260.897 152.685 260.489 153.161C260.038 153.688 259.545 154 259.011 154C258.476 154 257.984 153.688 257.532 153.161C257.124 152.685 256.758 152.497 256.433 152.497C256.108 152.497 255.742 152.685 255.334 153.161C254.883 153.688 254.39 154 253.856 154C253.321 154 252.828 153.688 252.377 153.161C251.969 152.685 251.603 152.497 251.278 152.497Z" fill="black"></path> <path fill-rule="evenodd" clip-rule="evenodd" d="M251.256 156.233C250.931 156.233 250.564 156.422 250.157 156.898C249.705 157.424 249.213 157.737 248.678 157.737C248.144 157.737 247.651 157.424 247.2 156.898L247.579 156.572C247.987 157.048 248.353 157.237 248.678 157.237C249.003 157.237 249.369 157.048 249.777 156.572C250.229 156.045 250.721 155.733 251.256 155.733C251.79 155.733 252.283 156.045 252.734 156.572C253.142 157.048 253.508 157.237 253.833 157.237C254.158 157.237 254.525 157.048 254.932 156.572C255.384 156.045 255.876 155.733 256.411 155.733C256.945 155.733 257.438 156.045 257.889 156.572C258.297 157.048 258.664 157.237 258.988 157.237C259.313 157.237 259.68 157.048 260.087 156.572L260.467 156.898C260.015 157.424 259.523 157.737 258.988 157.737C258.454 157.737 257.961 157.424 257.51 156.898C257.102 156.422 256.736 156.233 256.411 156.233C256.086 156.233 255.72 156.422 255.312 156.898C254.86 157.424 254.368 157.737 253.833 157.737C253.299 157.737 252.806 157.424 252.355 156.898C251.947 156.422 251.581 156.233 251.256 156.233Z" fill="black"></path> <path fill-rule="evenodd" clip-rule="evenodd" d="M252.035 144.613C253.073 144.613 253.913 143.772 253.913 142.735C253.913 141.698 253.073 140.857 252.035 140.857C250.998 140.857 250.157 141.698 250.157 142.735C250.157 143.772 250.998 144.613 252.035 144.613ZM252.035 145.113C253.349 145.113 254.413 144.048 254.413 142.735C254.413 141.422 253.349 140.357 252.035 140.357C250.722 140.357 249.657 141.422 249.657 142.735C249.657 144.048 250.722 145.113 252.035 145.113Z" fill="black"></path> <path fill-rule="evenodd" clip-rule="evenodd" d="M274.545 142.21L274.958 142.564C275.506 143.035 276.404 144.336 276.404 145.904C276.404 147.477 275.502 148.659 274.943 149.07L274.545 149.363V142.21ZM275.045 143.404V148.277C275.458 147.778 275.904 146.938 275.904 145.904C275.904 144.874 275.462 143.967 275.045 143.404Z" fill="black"></path> <path fill-rule="evenodd" clip-rule="evenodd" d="M268.79 149.298H279.401L276.728 152.548L276.342 152.231L278.342 149.798H269.93L272.047 152.096L271.679 152.435L268.79 149.298Z" fill="black"></path> <path fill-rule="evenodd" clip-rule="evenodd" d="M277.784 151.153L270.719 151.157L270.719 150.657L277.784 150.653L277.784 151.153Z" fill="black"></path> <path fill-rule="evenodd" clip-rule="evenodd" d="M265.432 234.964C267.782 234.964 269.686 233.06 269.686 230.711C269.686 228.361 267.782 226.457 265.432 226.457C263.083 226.457 261.179 228.361 261.179 230.711C261.179 233.06 263.083 234.964 265.432 234.964ZM265.432 235.964C268.334 235.964 270.686 233.612 270.686 230.711C270.686 227.809 268.334 225.457 265.432 225.457C262.531 225.457 260.179 227.809 260.179 230.711C260.179 233.612 262.531 235.964 265.432 235.964Z" fill="black"></path> <path fill-rule="evenodd" clip-rule="evenodd" d="M271.686 122.608H259.206V121.608H271.686V122.608Z" fill="black"></path> <path fill-rule="evenodd" clip-rule="evenodd" d="M292.113 128.387H239.108V217.977H292.113V128.387ZM238.108 127.387V218.977H293.113V127.387H238.108Z" fill="black"></path> <path fill-rule="evenodd" clip-rule="evenodd" d="M292.763 170.267H238.124V169.267H292.763V170.267ZM274.025 181.3H255.461V180.3H274.025V181.3Z" fill="black"></path> <path fill-rule="evenodd" clip-rule="evenodd" d="M268.881 210.869L246.394 210.869L246.394 211.869L268.881 211.869L268.881 210.869Z" fill="black"></path> <path fill-rule="evenodd" clip-rule="evenodd" d="M283.584 204.285L246.394 204.285L246.394 205.285L283.584 205.285L283.584 204.285Z" fill="black"></path> <path fill-rule="evenodd" clip-rule="evenodd" d="M283.584 197.701L246.394 197.701L246.394 198.701L283.584 198.701L283.584 197.701Z" fill="black"></path> <path fill-rule="evenodd" clip-rule="evenodd" d="M283.584 191.117L246.394 191.117L246.394 192.117L283.584 192.117L283.584 191.117Z" fill="black"></path> <path d="M335.662 58.3719C335.662 55.6104 337.901 53.3719 340.662 53.3719H443.044C445.805 53.3719 448.044 55.6104 448.044 58.3719V194.513C448.044 197.274 445.805 199.513 443.044 199.513H340.662C337.901 199.513 335.662 197.274 335.662 194.513V58.3719Z" fill="white"></path> <path fill-rule="evenodd" clip-rule="evenodd" d="M443.044 54.8719H340.662C338.729 54.8719 337.162 56.4389 337.162 58.3719V194.513C337.162 196.446 338.729 198.013 340.662 198.013H443.044C444.977 198.013 446.544 196.446 446.544 194.513V58.3719C446.544 56.4389 444.977 54.8719 443.044 54.8719ZM340.662 53.3719C337.901 53.3719 335.662 55.6104 335.662 58.3719V194.513C335.662 197.274 337.901 199.513 340.662 199.513H443.044C445.805 199.513 448.044 197.274 448.044 194.513V58.3719C448.044 55.6104 445.805 53.3719 443.044 53.3719H340.662Z" fill="black"></path> <path fill-rule="evenodd" clip-rule="evenodd" d="M357.238 107.45C356.887 107.45 356.452 107.653 355.935 108.256C355.331 108.962 354.644 109.412 353.874 109.412C353.103 109.412 352.417 108.962 351.812 108.256L352.571 107.606C353.088 108.209 353.523 108.412 353.874 108.412C354.225 108.412 354.659 108.209 355.176 107.606C355.781 106.9 356.468 106.45 357.238 106.45C358.008 106.45 358.695 106.9 359.3 107.606C359.817 108.209 360.251 108.412 360.602 108.412C360.953 108.412 361.388 108.209 361.905 107.606C362.509 106.9 363.196 106.45 363.966 106.45C364.737 106.45 365.424 106.9 366.028 107.606C366.545 108.209 366.979 108.412 367.331 108.412C367.682 108.412 368.116 108.209 368.633 107.606C369.238 106.9 369.925 106.45 370.695 106.45C371.465 106.45 372.152 106.9 372.757 107.606C373.274 108.209 373.708 108.412 374.059 108.412C374.41 108.412 374.845 108.209 375.362 107.606C375.966 106.9 376.653 106.45 377.423 106.45C378.194 106.45 378.881 106.9 379.485 107.606C380.002 108.209 380.436 108.412 380.788 108.412C381.139 108.412 381.573 108.209 382.09 107.606C382.695 106.9 383.382 106.45 384.152 106.45C384.922 106.45 385.609 106.9 386.214 107.606C386.73 108.209 387.165 108.412 387.516 108.412C387.867 108.412 388.302 108.209 388.819 107.606C389.423 106.9 390.11 106.45 390.88 106.45C391.651 106.45 392.338 106.9 392.942 107.606C393.459 108.209 393.893 108.412 394.245 108.412C394.596 108.412 395.03 108.209 395.547 107.606C396.152 106.9 396.839 106.45 397.609 106.45C398.379 106.45 399.066 106.9 399.671 107.606L398.911 108.256C398.395 107.653 397.96 107.45 397.609 107.45C397.258 107.45 396.823 107.653 396.306 108.256C395.702 108.962 395.015 109.412 394.245 109.412C393.474 109.412 392.787 108.962 392.183 108.256C391.666 107.653 391.232 107.45 390.88 107.45C390.529 107.45 390.095 107.653 389.578 108.256C388.973 108.962 388.286 109.412 387.516 109.412C386.746 109.412 386.059 108.962 385.454 108.256C384.938 107.653 384.503 107.45 384.152 107.45C383.801 107.45 383.366 107.653 382.849 108.256C382.245 108.962 381.558 109.412 380.788 109.412C380.017 109.412 379.33 108.962 378.726 108.256C378.209 107.653 377.775 107.45 377.423 107.45C377.072 107.45 376.638 107.653 376.121 108.256C375.516 108.962 374.829 109.412 374.059 109.412C373.289 109.412 372.602 108.962 371.997 108.256C371.481 107.653 371.046 107.45 370.695 107.45C370.344 107.45 369.909 107.653 369.392 108.256C368.788 108.962 368.101 109.412 367.331 109.412C366.56 109.412 365.873 108.962 365.269 108.256C364.752 107.653 364.318 107.45 363.966 107.45C363.615 107.45 363.181 107.653 362.664 108.256C362.059 108.962 361.372 109.412 360.602 109.412C359.832 109.412 359.145 108.962 358.54 108.256C358.024 107.653 357.589 107.45 357.238 107.45Z" fill="black"></path> <path fill-rule="evenodd" clip-rule="evenodd" d="M404.337 107.45C403.986 107.45 403.552 107.653 403.035 108.256C402.43 108.962 401.743 109.412 400.973 109.412C400.203 109.412 399.516 108.962 398.911 108.256L399.671 107.606C400.187 108.209 400.622 108.412 400.973 108.412C401.324 108.412 401.759 108.209 402.276 107.606C402.88 106.9 403.567 106.45 404.337 106.45C405.108 106.45 405.795 106.9 406.399 107.606C406.916 108.209 407.35 108.412 407.702 108.412C408.053 108.412 408.487 108.209 409.004 107.606C409.609 106.9 410.296 106.45 411.066 106.45C411.836 106.45 412.523 106.9 413.128 107.606C413.644 108.209 414.079 108.412 414.43 108.412C414.781 108.412 415.216 108.209 415.733 107.606C416.337 106.9 417.024 106.45 417.794 106.45C418.565 106.45 419.252 106.9 419.856 107.606C420.373 108.209 420.807 108.412 421.159 108.412C421.51 108.412 421.944 108.209 422.461 107.606C423.066 106.9 423.753 106.45 424.523 106.45C425.293 106.45 425.98 106.9 426.585 107.606C427.101 108.209 427.536 108.412 427.887 108.412C428.238 108.412 428.673 108.209 429.19 107.606C429.794 106.9 430.481 106.45 431.251 106.45C432.022 106.45 432.708 106.9 433.313 107.606L432.554 108.256C432.037 107.653 431.602 107.45 431.251 107.45C430.9 107.45 430.466 107.653 429.949 108.256C429.344 108.962 428.657 109.412 427.887 109.412C427.117 109.412 426.43 108.962 425.825 108.256C425.308 107.653 424.874 107.45 424.523 107.45C424.172 107.45 423.737 107.653 423.22 108.256C422.616 108.962 421.929 109.412 421.159 109.412C420.388 109.412 419.701 108.962 419.097 108.256C418.58 107.653 418.146 107.45 417.794 107.45C417.443 107.45 417.009 107.653 416.492 108.256C415.887 108.962 415.2 109.412 414.43 109.412C413.66 109.412 412.973 108.962 412.368 108.256C411.852 107.653 411.417 107.45 411.066 107.45C410.715 107.45 410.28 107.653 409.763 108.256C409.159 108.962 408.472 109.412 407.702 109.412C406.931 109.412 406.244 108.962 405.64 108.256C405.123 107.653 404.689 107.45 404.337 107.45Z" fill="black"></path> <path fill-rule="evenodd" clip-rule="evenodd" d="M361.123 115.294C360.772 115.294 360.338 115.498 359.821 116.101C359.216 116.806 358.529 117.257 357.759 117.257C356.989 117.257 356.302 116.806 355.697 116.101L356.456 115.45C356.973 116.053 357.408 116.257 357.759 116.257C358.11 116.257 358.545 116.053 359.061 115.45C359.666 114.745 360.353 114.294 361.123 114.294C361.893 114.294 362.58 114.745 363.185 115.45C363.702 116.053 364.136 116.257 364.487 116.257C364.839 116.257 365.273 116.053 365.79 115.45C366.395 114.745 367.081 114.294 367.852 114.294C368.622 114.294 369.309 114.745 369.913 115.45C370.43 116.053 370.865 116.257 371.216 116.257C371.567 116.257 372.002 116.053 372.518 115.45C373.123 114.745 373.81 114.294 374.58 114.294C375.35 114.294 376.037 114.745 376.642 115.45C377.159 116.053 377.593 116.257 377.944 116.257C378.296 116.257 378.73 116.053 379.247 115.45C379.851 114.745 380.538 114.294 381.309 114.294C382.079 114.294 382.766 114.745 383.37 115.45C383.887 116.053 384.322 116.257 384.673 116.257C385.024 116.257 385.459 116.053 385.975 115.45C386.58 114.745 387.267 114.294 388.037 114.294C388.807 114.294 389.494 114.745 390.099 115.45C390.616 116.053 391.05 116.257 391.401 116.257C391.753 116.257 392.187 116.053 392.704 115.45C393.308 114.745 393.995 114.294 394.766 114.294C395.536 114.294 396.223 114.745 396.827 115.45C397.344 116.053 397.779 116.257 398.13 116.257C398.481 116.257 398.916 116.053 399.432 115.45C400.037 114.745 400.724 114.294 401.494 114.294C402.264 114.294 402.951 114.745 403.556 115.45L402.797 116.101C402.28 115.498 401.845 115.294 401.494 115.294C401.143 115.294 400.708 115.498 400.192 116.101C399.587 116.806 398.9 117.257 398.13 117.257C397.36 117.257 396.673 116.806 396.068 116.101C395.551 115.498 395.117 115.294 394.766 115.294C394.414 115.294 393.98 115.498 393.463 116.101C392.859 116.806 392.172 117.257 391.401 117.257C390.631 117.257 389.944 116.806 389.34 116.101C388.823 115.498 388.388 115.294 388.037 115.294C387.686 115.294 387.251 115.498 386.735 116.101C386.13 116.806 385.443 117.257 384.673 117.257C383.903 117.257 383.216 116.806 382.611 116.101C382.094 115.498 381.66 115.294 381.309 115.294C380.957 115.294 380.523 115.498 380.006 116.101C379.402 116.806 378.715 117.257 377.944 117.257C377.174 117.257 376.487 116.806 375.883 116.101C375.366 115.498 374.931 115.294 374.58 115.294C374.229 115.294 373.795 115.498 373.278 116.101C372.673 116.806 371.986 117.257 371.216 117.257C370.446 117.257 369.759 116.806 369.154 116.101C368.637 115.498 368.203 115.294 367.852 115.294C367.5 115.294 367.066 115.498 366.549 116.101C365.945 116.806 365.258 117.257 364.487 117.257C363.717 117.257 363.03 116.806 362.426 116.101C361.909 115.498 361.474 115.294 361.123 115.294Z" fill="black"></path> <path fill-rule="evenodd" clip-rule="evenodd" d="M362.243 85.0376C364.02 85.0376 365.461 83.5967 365.461 81.8192C365.461 80.0418 364.02 78.6009 362.243 78.6009C360.465 78.6009 359.025 80.0418 359.025 81.8192C359.025 83.5967 360.465 85.0376 362.243 85.0376ZM362.243 86.0376C364.573 86.0376 366.461 84.149 366.461 81.8192C366.461 79.4895 364.573 77.6009 362.243 77.6009C359.913 77.6009 358.025 79.4895 358.025 81.8192C358.025 84.149 359.913 86.0376 362.243 86.0376Z" fill="black"></path> <path fill-rule="evenodd" clip-rule="evenodd" d="M415.873 84.3359L416.622 84.7657C417.586 85.3192 418.858 86.3662 419.894 87.7362C420.93 89.1064 421.76 90.8427 421.76 92.7681C421.76 94.6974 420.927 96.3636 419.883 97.647C418.841 98.928 417.562 99.8636 416.593 100.34L415.873 100.695V84.3359ZM416.873 86.1285V99.029C417.591 98.5623 418.407 97.8768 419.107 97.0161C420.055 95.8508 420.76 94.4005 420.76 92.7681C420.76 91.1317 420.051 89.603 419.096 88.3391C418.4 87.4177 417.589 86.6597 416.873 86.1285Z" fill="black"></path> <path fill-rule="evenodd" clip-rule="evenodd" d="M401.069 100.269H431.637L424.815 107.323L424.096 106.627L429.278 101.269H403.507L409.747 107.424L409.044 108.136L401.069 100.269Z" fill="black"></path> <path fill-rule="evenodd" clip-rule="evenodd" d="M427.342 104.529L405.571 104.529L405.571 103.529L427.342 103.529L427.342 104.529Z" fill="black"></path> <path fill-rule="evenodd" clip-rule="evenodd" d="M391.853 192.739C394.202 192.739 396.107 190.834 396.107 188.485C396.107 186.136 394.202 184.231 391.853 184.231C389.504 184.231 387.599 186.136 387.599 188.485C387.599 190.834 389.504 192.739 391.853 192.739ZM391.853 193.739C394.754 193.739 397.107 191.386 397.107 188.485C397.107 185.583 394.754 183.231 391.853 183.231C388.951 183.231 386.599 185.583 386.599 188.485C386.599 191.386 388.951 193.739 391.853 193.739Z" fill="black"></path> <path fill-rule="evenodd" clip-rule="evenodd" d="M398.093 63.1391H385.613V61.6391H398.093V63.1391Z" fill="black"></path> <path fill-rule="evenodd" clip-rule="evenodd" d="M440.184 68.9183H343.521V176.723H440.184V68.9183ZM342.521 67.9183V177.723H441.184V67.9183H342.521Z" fill="black"></path> <path fill-rule="evenodd" clip-rule="evenodd" d="M440.173 126.942H343.532V125.942H440.173V126.942ZM407.03 137.975H374.197V136.975H407.03V137.975Z" fill="black"></path> <path fill-rule="evenodd" clip-rule="evenodd" d="M399.788 169.371L352.192 169.371L352.192 170.371L399.788 170.371L399.788 169.371Z" fill="black"></path> <path fill-rule="evenodd" clip-rule="evenodd" d="M430.908 162.22L352.192 162.22L352.192 163.22L430.908 163.22L430.908 162.22Z" fill="black"></path> <path fill-rule="evenodd" clip-rule="evenodd" d="M430.908 155.069L352.192 155.069L352.192 156.069L430.908 156.069L430.908 155.069Z" fill="black"></path> <path fill-rule="evenodd" clip-rule="evenodd" d="M430.908 147.919L352.192 147.919L352.192 148.919L430.908 148.919L430.908 147.919Z" fill="black"></path> </svg> 