<?xml version="1.0" encoding="UTF-8"?> <svg xmlns="http://www.w3.org/2000/svg" width="460" height="347" viewBox="0 0 460 347" fill="none"> <rect width="459" height="347" transform="translate(0.667542)" fill="white"></rect> <path fill-rule="evenodd" clip-rule="evenodd" d="M380.86 85.2439H89.6932C87.7602 85.2439 86.1932 86.811 86.1932 88.7439V283.602C86.1932 285.535 87.7602 287.102 89.6932 287.102H380.86C382.793 287.102 384.36 285.535 384.36 283.602V88.7439C384.36 86.811 382.793 85.2439 380.86 85.2439ZM89.6932 83.7439C86.9318 83.7439 84.6932 85.9825 84.6932 88.7439V283.602C84.6932 286.364 86.9318 288.602 89.6932 288.602H380.86C383.622 288.602 385.86 286.364 385.86 283.602V88.7439C385.86 85.9825 383.622 83.7439 380.86 83.7439H89.6932Z" fill="black"></path> <path d="M66.171 105.203C66.171 102.442 68.4095 100.203 71.171 100.203H362.338C365.1 100.203 367.338 102.442 367.338 105.203V300.062C367.338 302.823 365.1 305.062 362.338 305.062H71.171C68.4095 305.062 66.171 302.823 66.171 300.062V105.203Z" fill="white"></path> <path fill-rule="evenodd" clip-rule="evenodd" d="M362.338 101.703H71.171C69.238 101.703 67.671 103.27 67.671 105.203V300.062C67.671 301.995 69.238 303.562 71.171 303.562H362.338C364.271 303.562 365.838 301.995 365.838 300.062V105.203C365.838 103.27 364.271 101.703 362.338 101.703ZM71.171 100.203C68.4095 100.203 66.171 102.442 66.171 105.203V300.062C66.171 302.823 68.4095 305.062 71.171 305.062H362.338C365.1 305.062 367.338 302.823 367.338 300.062V105.203C367.338 102.442 365.1 100.203 362.338 100.203H71.171Z" fill="black"></path> <path fill-rule="evenodd" clip-rule="evenodd" d="M122.996 215.273C122.5 215.273 121.882 215.63 121.158 216.658C120.383 217.76 119.504 218.468 118.502 218.468C117.5 218.468 116.62 217.76 115.846 216.658L116.664 216.083C117.387 217.112 118.006 217.468 118.502 217.468C118.998 217.468 119.617 217.112 120.34 216.083C121.115 214.982 121.994 214.273 122.996 214.273C123.998 214.273 124.878 214.982 125.653 216.083C126.376 217.112 126.995 217.468 127.491 217.468C127.987 217.468 128.606 217.112 129.329 216.083C130.104 214.982 130.983 214.273 131.985 214.273C132.987 214.273 133.867 214.982 134.641 216.083C135.365 217.112 135.984 217.468 136.48 217.468C136.976 217.468 137.595 217.112 138.318 216.083C139.093 214.982 139.972 214.273 140.974 214.273C141.976 214.273 142.856 214.982 143.63 216.083C144.354 217.112 144.973 217.468 145.469 217.468C145.965 217.468 146.584 217.112 147.307 216.083C148.082 214.982 148.961 214.273 149.963 214.273C150.965 214.273 151.845 214.982 152.619 216.083L151.801 216.658C151.078 215.63 150.459 215.273 149.963 215.273C149.467 215.273 148.848 215.63 148.125 216.658C147.35 217.76 146.471 218.468 145.469 218.468C144.467 218.468 143.587 217.76 142.812 216.658C142.089 215.63 141.47 215.273 140.974 215.273C140.478 215.273 139.859 215.63 139.136 216.658C138.361 217.76 137.482 218.468 136.48 218.468C135.478 218.468 134.598 217.76 133.824 216.658C133.1 215.63 132.481 215.273 131.985 215.273C131.489 215.273 130.87 215.63 130.147 216.658C129.372 217.76 128.493 218.468 127.491 218.468C126.489 218.468 125.609 217.76 124.835 216.658C124.111 215.63 123.493 215.273 122.996 215.273Z" fill="black"></path> <path fill-rule="evenodd" clip-rule="evenodd" d="M158.952 215.273C158.456 215.273 157.837 215.63 157.114 216.658C156.339 217.76 155.46 218.468 154.458 218.468C153.456 218.468 152.576 217.76 151.801 216.658L152.619 216.083C153.343 217.112 153.961 217.468 154.458 217.468C154.954 217.468 155.572 217.112 156.296 216.083C157.071 214.982 157.95 214.273 158.952 214.273C159.954 214.273 160.833 214.982 161.608 216.083C162.332 217.112 162.95 217.468 163.447 217.468C163.943 217.468 164.561 217.112 165.285 216.083C166.06 214.982 166.939 214.273 167.941 214.273C168.943 214.273 169.822 214.982 170.597 216.083C171.321 217.112 171.939 217.468 172.435 217.468C172.932 217.468 173.55 217.112 174.274 216.083C175.048 214.982 175.928 214.273 176.93 214.273C177.932 214.273 178.811 214.982 179.586 216.083C180.309 217.112 180.928 217.468 181.424 217.468C181.92 217.468 182.539 217.112 183.263 216.083C184.037 214.982 184.917 214.273 185.919 214.273C186.921 214.273 187.8 214.982 188.575 216.083C189.298 217.112 189.917 217.468 190.413 217.468C190.909 217.468 191.528 217.112 192.252 216.083L193.069 216.658C192.295 217.76 191.415 218.468 190.413 218.468C189.411 218.468 188.532 217.76 187.757 216.658C187.034 215.63 186.415 215.273 185.919 215.273C185.423 215.273 184.804 215.63 184.081 216.658C183.306 217.76 182.426 218.468 181.424 218.468C180.422 218.468 179.543 217.76 178.768 216.658C178.045 215.63 177.426 215.273 176.93 215.273C176.434 215.273 175.815 215.63 175.092 216.658C174.317 217.76 173.437 218.468 172.435 218.468C171.433 218.468 170.554 217.76 169.779 216.658C169.056 215.63 168.437 215.273 167.941 215.273C167.445 215.273 166.826 215.63 166.103 216.658C165.328 217.76 164.449 218.468 163.447 218.468C162.444 218.468 161.565 217.76 160.79 216.658C160.067 215.63 159.448 215.273 158.952 215.273Z" fill="black"></path> <path fill-rule="evenodd" clip-rule="evenodd" d="M118.766 181.826C121.546 181.826 123.799 179.572 123.799 176.793C123.799 174.014 121.546 171.76 118.766 171.76C115.987 171.76 113.733 174.014 113.733 176.793C113.733 179.572 115.987 181.826 118.766 181.826ZM118.766 182.826C122.098 182.826 124.799 180.125 124.799 176.793C124.799 173.461 122.098 170.76 118.766 170.76C115.434 170.76 112.733 173.461 112.733 176.793C112.733 180.125 115.434 182.826 118.766 182.826Z" fill="black"></path> <path fill-rule="evenodd" clip-rule="evenodd" d="M152.875 180.571L153.656 181.101C155.061 182.054 156.922 183.864 158.434 186.23C159.948 188.598 161.134 191.557 161.134 194.806C161.134 198.058 159.946 200.892 158.425 203.104C156.907 205.311 155.038 206.927 153.626 207.748L152.875 208.185V180.571ZM153.875 182.515V206.395C155.039 205.564 156.427 204.244 157.601 202.537C159.037 200.449 160.134 197.809 160.134 194.806C160.134 191.8 159.035 189.026 157.591 186.768C156.421 184.938 155.04 183.47 153.875 182.515Z" fill="black"></path> <path fill-rule="evenodd" clip-rule="evenodd" d="M138.133 207.42H176.455L168.63 215.245L167.922 214.538L174.041 208.42H140.548L148.11 215.982L147.403 216.689L138.133 207.42Z" fill="black"></path> <path fill-rule="evenodd" clip-rule="evenodd" d="M171.14 212.576L143.423 212.576L143.423 211.576L171.14 211.576L171.14 212.576Z" fill="black"></path> <path fill-rule="evenodd" clip-rule="evenodd" d="M87.9949 85.6492L68.7138 102.693L67.7204 101.569L87.0014 84.5253L87.9949 85.6492ZM384.135 287.351L365.73 303.725L364.733 302.605L383.138 286.231L384.135 287.351Z" fill="black"></path> <path fill-rule="evenodd" clip-rule="evenodd" d="M366.8 124.231H66.6863V123.231H366.8V124.231Z" fill="black"></path> <path fill-rule="evenodd" clip-rule="evenodd" d="M352.49 199.349H282.277C282.001 199.349 281.777 199.573 281.777 199.849V217.438C281.777 217.714 282.001 217.938 282.277 217.938H352.49C352.766 217.938 352.99 217.714 352.99 217.438V199.849C352.99 199.573 352.766 199.349 352.49 199.349ZM282.277 197.849C281.172 197.849 280.277 198.744 280.277 199.849V217.438C280.277 218.543 281.172 219.438 282.277 219.438H352.49C353.594 219.438 354.49 218.543 354.49 217.438V199.849C354.49 198.744 353.594 197.849 352.49 197.849H282.277Z" fill="black"></path> <path fill-rule="evenodd" clip-rule="evenodd" d="M325.104 209.393H309.663V207.893H325.104V209.393Z" fill="black"></path> <path fill-rule="evenodd" clip-rule="evenodd" d="M354.49 187.14L280.277 187.14L280.277 185.64L354.49 185.64L354.49 187.14Z" fill="black"></path> <path fill-rule="evenodd" clip-rule="evenodd" d="M295.473 181.117H280.277V180.117H295.473V181.117Z" fill="black"></path> <path fill-rule="evenodd" clip-rule="evenodd" d="M294.783 265.014H279.586V263.514H294.783V265.014Z" fill="black"></path> <path fill-rule="evenodd" clip-rule="evenodd" d="M294.783 279.657H279.586V278.157H294.783V279.657Z" fill="black"></path> <path fill-rule="evenodd" clip-rule="evenodd" d="M278.72 155.12V141.63H279.72V155.12H278.72ZM287.185 145.543H281.171V144.543H287.185V145.543ZM287.185 150.744H281.171V149.744H287.185V150.744Z" fill="black"></path> <path fill-rule="evenodd" clip-rule="evenodd" d="M352.51 155.12V141.63H351.51V155.12H352.51ZM344.045 145.543H350.059V144.543H344.045V145.543ZM344.045 150.744H350.059V149.744H344.045V150.744Z" fill="black"></path> <path fill-rule="evenodd" clip-rule="evenodd" d="M314.952 144.869V141.468H315.952V144.869H318.541V145.869H315.952V150.557H318.541V151.557H315.952V155.445H314.952V151.557H312.689V150.557H314.952V145.869H312.689V144.869H314.952Z" fill="black"></path> <path d="M337.927 186.349C337.927 188.572 336.125 190.374 333.902 190.374C331.679 190.374 329.876 188.572 329.876 186.349C329.876 184.126 331.679 182.324 333.902 182.324C336.125 182.324 337.927 184.126 337.927 186.349Z" fill="white"></path> <path fill-rule="evenodd" clip-rule="evenodd" d="M333.902 189.374C335.573 189.374 336.927 188.02 336.927 186.349C336.927 184.678 335.573 183.324 333.902 183.324C332.231 183.324 330.876 184.678 330.876 186.349C330.876 188.02 332.231 189.374 333.902 189.374ZM333.902 190.374C336.125 190.374 337.927 188.572 337.927 186.349C337.927 184.126 336.125 182.324 333.902 182.324C331.679 182.324 329.876 184.126 329.876 186.349C329.876 188.572 331.679 190.374 333.902 190.374Z" fill="black"></path> <path fill-rule="evenodd" clip-rule="evenodd" d="M354.49 265.014H299.325V263.514H354.49V265.014Z" fill="black"></path> <path fill-rule="evenodd" clip-rule="evenodd" d="M354.49 279.657H299.325V278.157H354.49V279.657Z" fill="black"></path> <path d="M318.849 264.354C318.849 266.577 317.047 268.38 314.824 268.38C312.601 268.38 310.798 266.577 310.798 264.354C310.798 262.131 312.601 260.329 314.824 260.329C317.047 260.329 318.849 262.131 318.849 264.354Z" fill="white"></path> <path fill-rule="evenodd" clip-rule="evenodd" d="M314.824 267.38C316.495 267.38 317.849 266.025 317.849 264.354C317.849 262.683 316.495 261.329 314.824 261.329C313.153 261.329 311.798 262.683 311.798 264.354C311.798 266.025 313.153 267.38 314.824 267.38ZM314.824 268.38C317.047 268.38 318.849 266.577 318.849 264.354C318.849 262.131 317.047 260.329 314.824 260.329C312.601 260.329 310.798 262.131 310.798 264.354C310.798 266.577 312.601 268.38 314.824 268.38Z" fill="black"></path> <path d="M343.255 278.734C343.255 280.957 341.453 282.759 339.23 282.759C337.007 282.759 335.205 280.957 335.205 278.734C335.205 276.511 337.007 274.709 339.23 274.709C341.453 274.709 343.255 276.511 343.255 278.734Z" fill="white"></path> <path fill-rule="evenodd" clip-rule="evenodd" d="M339.23 281.759C340.901 281.759 342.255 280.405 342.255 278.734C342.255 277.063 340.901 275.709 339.23 275.709C337.559 275.709 336.205 277.063 336.205 278.734C336.205 280.405 337.559 281.759 339.23 281.759ZM339.23 282.759C341.453 282.759 343.255 280.957 343.255 278.734C343.255 276.511 341.453 274.709 339.23 274.709C337.007 274.709 335.205 276.511 335.205 278.734C335.205 280.957 337.007 282.759 339.23 282.759Z" fill="black"></path> <path fill-rule="evenodd" clip-rule="evenodd" d="M347.012 106.954H323.093C319.791 106.954 317.115 109.63 317.115 112.932C317.115 116.233 319.791 118.91 323.093 118.91H347.012C350.314 118.91 352.99 116.233 352.99 112.932C352.99 109.63 350.314 106.954 347.012 106.954ZM323.093 105.454C318.963 105.454 315.615 108.802 315.615 112.932C315.615 117.062 318.963 120.41 323.093 120.41H347.012C351.142 120.41 354.49 117.062 354.49 112.932C354.49 108.802 351.142 105.454 347.012 105.454H323.093Z" fill="black"></path> <path fill-rule="evenodd" clip-rule="evenodd" d="M198.91 111.88H190.039V113.906H198.91V111.88ZM189.039 110.88V114.906H199.91V110.88H189.039Z" fill="black"></path> <path fill-rule="evenodd" clip-rule="evenodd" d="M206.324 107.249L206.324 116.322L208.797 116.322L208.797 107.249L206.324 107.249ZM205.324 117.322L209.797 117.322L209.797 106.249L205.324 106.249L205.324 117.322Z" fill="black"></path> <path fill-rule="evenodd" clip-rule="evenodd" d="M216.21 109.564L216.21 116.322L225.041 116.322L225.041 109.564L216.21 109.564ZM215.21 117.322L226.041 117.322L226.041 108.564L215.21 108.564L215.21 117.322Z" fill="black"></path> <path fill-rule="evenodd" clip-rule="evenodd" d="M233.222 107.249L233.222 116.271L240.08 116.271L240.08 107.249L233.222 107.249ZM232.222 117.271L241.08 117.271L241.08 106.249L232.222 106.249L232.222 117.271Z" fill="black"></path> <path fill-rule="evenodd" clip-rule="evenodd" d="M77.8516 115.258C79.4693 115.258 80.7808 113.947 80.7808 112.329C80.7808 110.711 79.4693 109.4 77.8516 109.4C76.2339 109.4 74.9225 110.711 74.9225 112.329C74.9225 113.947 76.2339 115.258 77.8516 115.258ZM77.8516 116.758C80.2978 116.758 82.2808 114.775 82.2808 112.329C82.2808 109.883 80.2978 107.9 77.8516 107.9C75.4055 107.9 73.4225 109.883 73.4225 112.329C73.4225 114.775 75.4055 116.758 77.8516 116.758Z" fill="black"></path> <path fill-rule="evenodd" clip-rule="evenodd" d="M210.624 161.336H99.2584V236.263H210.624V161.336ZM98.2584 160.336V237.263H211.624V160.336H98.2584Z" fill="black"></path> <path d="M96.2565 158.796H101.706V164.246H96.2565V158.796Z" fill="black"></path> <path d="M208.899 158.796H214.349V164.246H208.899V158.796Z" fill="black"></path> <path d="M96.2565 196.075H101.706V201.524H96.2565V196.075Z" fill="black"></path> <path d="M208.899 196.075H214.349V201.524H208.899V196.075Z" fill="black"></path> <path d="M150.825 158.796H156.274V164.246H150.825V158.796Z" fill="black"></path> <path d="M152.216 234.538H157.666V239.988H152.216V234.538Z" fill="black"></path> <path d="M96.2565 234.538H101.706V239.988H96.2565V234.538Z" fill="black"></path> <path d="M208.899 234.538H214.349V239.988H208.899V234.538Z" fill="black"></path> <mask id="mask0" mask-type="alpha" maskUnits="userSpaceOnUse" x="162" y="232" width="42" height="46"> <path d="M162.609 232.442H203.567V277.896H162.609V232.442Z" fill="#C4C4C4"></path> </mask> <g mask="url(#mask0)"> <path fill-rule="evenodd" clip-rule="evenodd" d="M190.587 216.415L144.334 262.668L143.627 261.96L189.88 215.708L190.587 216.415Z" fill="black"></path> <path fill-rule="evenodd" clip-rule="evenodd" d="M201.177 227.005L154.924 273.258L154.217 272.551L200.47 226.298L201.177 227.005Z" fill="black"></path> <path fill-rule="evenodd" clip-rule="evenodd" d="M211.252 237.08L164.999 283.333L164.292 282.625L210.545 236.373L211.252 237.08Z" fill="black"></path> <path fill-rule="evenodd" clip-rule="evenodd" d="M195.882 221.71L149.629 267.962L148.922 267.255L195.175 221.003L195.882 221.71Z" fill="black"></path> <path fill-rule="evenodd" clip-rule="evenodd" d="M206.472 232.3L160.219 278.553L159.512 277.845L205.765 231.593L206.472 232.3Z" fill="black"></path> <path fill-rule="evenodd" clip-rule="evenodd" d="M216.547 242.375L170.294 288.628L169.587 287.92L215.84 241.668L216.547 242.375Z" fill="black"></path> <path fill-rule="evenodd" clip-rule="evenodd" d="M221.842 247.67L175.589 293.922L174.882 293.215L221.135 246.963L221.842 247.67Z" fill="black"></path> </g> <path fill-rule="evenodd" clip-rule="evenodd" d="M423.751 300.057H430.706L428.858 309.867L439.041 295.499H431.661L433.411 286.12L423.751 300.057ZM434.174 282.385L435.528 282.95L433.466 293.999H441.943L428.098 313.534L426.749 312.962L428.897 301.557H420.887L434.174 282.385Z" fill="black"></path> <path fill-rule="evenodd" clip-rule="evenodd" d="M270.61 50.0174H278.939L276.665 62.0844L289.236 44.3476H280.4L282.559 32.7768L270.61 50.0174ZM283.322 29.0417L284.676 29.6064L282.206 42.8476H292.138L275.905 65.7515L274.556 65.179L277.13 51.5174H267.745L283.322 29.0417Z" fill="black"></path> <path fill-rule="evenodd" clip-rule="evenodd" d="M12.343 184.832H19.0518L17.2798 194.238L27.0346 180.474H19.9151L21.5917 171.488L12.343 184.832ZM22.3553 167.753L23.709 168.318L21.7209 178.974H29.9362L16.5193 197.905L15.1704 197.332L17.2428 186.332H9.47839L22.3553 167.753Z" fill="black"></path> <path fill-rule="evenodd" clip-rule="evenodd" d="M262.385 304.124V123.621H263.385V304.124H262.385Z" fill="black"></path> <path d="M367.354 289.986V286.46C371.836 286.376 381.508 285.083 383.802 284.691C384.285 284.608 383.24 286.169 382.99 286.411C382.737 286.655 381.82 287.516 381.82 287.516C381.82 287.516 380.724 288.444 380.411 288.685L367.354 289.986Z" fill="white"></path> <path d="M87.8173 85.7786C86.9232 86.2257 85.1502 88.1281 84.5022 88.7392L82.9836 100.204H86.4777L88.3927 91.9984C88.7838 89.7631 89.5579 85.2808 89.1332 85.2808C88.5542 85.2808 88.5281 85.4233 87.8173 85.7786Z" fill="white"></path> <path d="M116.255 233.733V251.01L119.773 247.844L123.185 254.959L125.703 253.495L122.206 246.463L126.823 245.935L116.255 233.733Z" fill="black"></path> </svg> 